<svg width="97" height="28" viewBox="0 0 97 28" fill="none" xmlns="http://www.w3.org/2000/svg">
<path d="M15.4336 5.625C15.5508 5.6901 15.6289 5.77474 15.668 5.87891C15.707 5.98307 15.7331 6.11328 15.7461 6.26953C15.7461 6.39974 15.7428 6.49414 15.7363 6.55273C15.7298 6.63737 15.7396 6.73177 15.7656 6.83594C15.7201 6.92708 15.668 7.00195 15.6094 7.06055C15.5508 7.11914 15.5052 7.20703 15.4727 7.32422C15.349 7.61719 15.209 7.87109 15.0527 8.08594C14.8835 8.3138 14.724 8.55469 14.5742 8.80859C14.431 8.9388 14.3171 9.09831 14.2324 9.28711C14.1478 9.47591 14.0664 9.67448 13.9883 9.88281C13.7279 10.3125 13.4772 10.7487 13.2363 11.1914C12.9954 11.6341 12.7643 12.0833 12.543 12.5391L13.0996 12.6562C13.2884 12.6953 13.4609 12.7539 13.6172 12.832C13.6823 12.9297 13.7311 12.985 13.7637 12.998C13.7962 13.0111 13.7995 13.0339 13.7734 13.0664C13.8255 13.4505 13.7344 13.5807 13.5 13.457C13.4089 13.4896 13.3372 13.4896 13.2852 13.457C13.0768 13.5091 12.8815 13.5482 12.6992 13.5742C12.5169 13.6003 12.3086 13.6263 12.0742 13.6523L11.8398 14.1406C11.8008 14.2188 11.7617 14.3001 11.7227 14.3848C11.6836 14.4629 11.6445 14.5443 11.6055 14.6289C11.2148 15.319 10.86 16.0124 10.541 16.709C10.222 17.4056 9.92578 18.125 9.65234 18.8672C9.6263 18.9844 9.60026 19.0951 9.57422 19.1992C9.54818 19.3034 9.50911 19.401 9.45703 19.4922C9.43099 19.6484 9.39193 19.7852 9.33984 19.9023C9.30729 19.974 9.28776 20.0358 9.28125 20.0879C9.27474 20.14 9.25521 20.2018 9.22266 20.2734C9.18359 20.3776 9.12826 20.4557 9.05664 20.5078C8.98503 20.5599 8.92969 20.6315 8.89062 20.7227C8.8125 20.6445 8.75065 20.6413 8.70508 20.7129C8.65951 20.7845 8.6237 20.8529 8.59766 20.918C8.45443 20.944 8.35352 20.9115 8.29492 20.8203C8.23633 20.7292 8.20703 20.6315 8.20703 20.5273C8.15495 20.4557 8.0931 20.4264 8.02148 20.4395C7.95638 20.446 7.88802 20.4167 7.81641 20.3516C7.71224 19.974 7.61458 19.668 7.52344 19.4336C7.43229 19.1992 7.33464 18.9779 7.23047 18.7695C7.21745 18.7174 7.20443 18.6686 7.19141 18.623C7.17839 18.5775 7.16536 18.5319 7.15234 18.4863C7.13932 18.4408 7.1263 18.3984 7.11328 18.3594C7.10026 18.3138 7.08724 18.2682 7.07422 18.2227L6.98633 18.0273C6.97331 17.9948 6.95703 17.9622 6.9375 17.9297C6.92448 17.8971 6.91146 17.8646 6.89844 17.832C6.8724 17.7995 6.85938 17.7604 6.85938 17.7148C6.85938 17.6693 6.84635 17.6302 6.82031 17.5977C6.78776 17.526 6.75195 17.4544 6.71289 17.3828C6.67383 17.3112 6.63151 17.2396 6.58594 17.168L6.33203 16.7578C6.24089 16.6471 6.17578 16.5495 6.13672 16.4648C6.10417 16.3867 6.05859 16.3281 6 16.2891C5.92188 16.1328 5.88281 16.0384 5.88281 16.0059C5.88281 15.9733 5.86979 15.944 5.84375 15.918L5.64844 15.6836C5.60938 15.638 5.5638 15.599 5.51172 15.5664C5.45312 15.5339 5.38151 15.5013 5.29688 15.4688C5.21224 15.4362 5.14062 15.4036 5.08203 15.3711L4.87695 15.2832C4.8444 15.2702 4.80534 15.2572 4.75977 15.2441C4.7207 15.2246 4.67839 15.2083 4.63281 15.1953C4.51562 15.4362 4.41797 15.6836 4.33984 15.9375C4.26172 16.1979 4.14453 16.4323 3.98828 16.6406C3.91667 16.8099 3.82878 16.9889 3.72461 17.1777C3.62044 17.3665 3.53255 17.5456 3.46094 17.7148C3.40234 17.7865 3.35677 17.8874 3.32422 18.0176C3.29818 18.1217 3.25911 18.2292 3.20703 18.3398C3.1875 18.3789 3.16471 18.418 3.13867 18.457C3.11914 18.4961 3.09635 18.5352 3.07031 18.5742L2.91406 18.8086C2.75781 19.056 2.57878 19.2578 2.37695 19.4141C2.27279 19.4987 2.16862 19.5898 2.06445 19.6875C1.9668 19.7786 1.8724 19.8763 1.78125 19.9805C1.50781 20.2018 1.28646 20.2604 1.11719 20.1562C1.07161 20.1042 1.03581 20.1009 1.00977 20.1465C0.990234 20.179 0.960938 20.2148 0.921875 20.2539C0.830729 20.2539 0.76888 20.2376 0.736328 20.2051L0.609375 20.0781C0.641927 19.9479 0.684245 19.8438 0.736328 19.7656C0.807943 19.6615 0.863281 19.5638 0.902344 19.4727C0.973958 19.4401 1.01302 19.388 1.01953 19.3164C1.02604 19.2448 1.05859 19.1862 1.11719 19.1406C1.19531 18.776 1.32552 18.4766 1.50781 18.2422C1.52083 18.2096 1.53385 18.1771 1.54688 18.1445C1.5599 18.1055 1.57292 18.0697 1.58594 18.0371C1.59896 18.0046 1.61198 17.9688 1.625 17.9297C1.64453 17.8906 1.66406 17.8516 1.68359 17.8125C1.72266 17.7409 1.77148 17.6823 1.83008 17.6367C1.88216 17.5911 1.92448 17.5326 1.95703 17.4609C2.0026 17.3177 2.04818 17.1908 2.09375 17.0801C2.13932 16.9694 2.1849 16.8717 2.23047 16.7871L2.50391 16.2891C2.59505 16.0156 2.69922 15.7585 2.81641 15.5176C2.93359 15.2767 3.05729 15.0326 3.1875 14.7852C3.1224 14.7591 3.08984 14.6973 3.08984 14.5996C3.08984 14.502 3.05729 14.4336 2.99219 14.3945C2.95964 14.1016 2.86198 13.8932 2.69922 13.7695C2.76432 13.6849 2.79688 13.6003 2.79688 13.5156C2.85547 13.457 2.94661 13.4049 3.07031 13.3594C3.09635 13.3464 3.11914 13.3333 3.13867 13.3203C3.16471 13.3073 3.1875 13.2975 3.20703 13.291C3.25911 13.265 3.3112 13.2487 3.36328 13.2422L3.66602 13.2129C3.7181 13.2064 3.76693 13.1999 3.8125 13.1934C3.86458 13.1868 3.91667 13.1771 3.96875 13.1641C4.01432 13.0924 4.05339 13.0208 4.08594 12.9492C4.125 12.8711 4.15755 12.793 4.18359 12.7148C4.23568 12.5586 4.3138 12.4219 4.41797 12.3047C4.43099 12.2656 4.45052 12.2266 4.47656 12.1875C4.5026 12.1549 4.50911 12.1159 4.49609 12.0703C4.59375 11.9596 4.6849 11.8164 4.76953 11.6406C4.84766 11.4779 4.9388 11.3281 5.04297 11.1914C5.13411 10.9766 5.24154 10.7845 5.36523 10.6152C5.47591 10.459 5.58984 10.2604 5.70703 10.0195C5.82422 9.8763 5.92513 9.6875 6.00977 9.45312C6.0944 9.21875 6.16927 9.00391 6.23438 8.80859C6.26042 8.75 6.27344 8.69466 6.27344 8.64258C6.27344 8.59049 6.28646 8.54167 6.3125 8.49609C6.33854 8.4375 6.3776 8.36589 6.42969 8.28125C6.45573 8.24219 6.47852 8.20312 6.49805 8.16406C6.52409 8.125 6.54688 8.08594 6.56641 8.04688C6.61849 7.95573 6.66406 7.87109 6.70312 7.79297C6.74219 7.71484 6.77474 7.6237 6.80078 7.51953C6.76172 7.44141 6.69987 7.42513 6.61523 7.4707C6.56966 7.49674 6.52409 7.52279 6.47852 7.54883C6.43294 7.56836 6.38411 7.59115 6.33203 7.61719C6.15625 7.70833 5.97396 7.81901 5.78516 7.94922C5.4987 8.09245 5.22852 8.24544 4.97461 8.4082C4.72721 8.57096 4.49609 8.74349 4.28125 8.92578C4.22266 8.93229 4.15755 8.95182 4.08594 8.98438C4.02083 9.01042 3.94271 9.02995 3.85156 9.04297L3.70508 8.92578C3.69857 8.91276 3.6888 8.89323 3.67578 8.86719C3.71484 8.82812 3.77995 8.78906 3.87109 8.75C3.96224 8.71094 4.00781 8.65885 4.00781 8.59375C3.99479 8.34635 4.06315 8.1543 4.21289 8.01758C4.36263 7.88086 4.50911 7.7474 4.65234 7.61719C4.75 7.55859 4.84115 7.50651 4.92578 7.46094C5.01042 7.40885 5.08854 7.36654 5.16016 7.33398C5.3099 7.26237 5.44661 7.17448 5.57031 7.07031C5.65495 7.03776 5.73633 7.00521 5.81445 6.97266C5.89909 6.93359 5.98372 6.89128 6.06836 6.8457C6.15299 6.80013 6.23438 6.75781 6.3125 6.71875C6.39714 6.67969 6.48177 6.64062 6.56641 6.60156C6.625 6.57552 6.68685 6.53646 6.75195 6.48438C6.78451 6.45833 6.8138 6.43229 6.83984 6.40625C6.8724 6.38021 6.90495 6.35417 6.9375 6.32812C7.09375 6.22396 7.25977 6.11979 7.43555 6.01562C7.61133 5.91146 7.79036 5.80729 7.97266 5.70312C8.07031 5.67708 8.12565 5.65755 8.13867 5.64453C8.16471 5.61849 8.18099 5.60547 8.1875 5.60547C8.38932 5.54036 8.55208 5.46875 8.67578 5.39062C8.72786 5.37109 8.77995 5.35156 8.83203 5.33203C8.88411 5.30599 8.93294 5.27995 8.97852 5.25391C9.07617 5.20182 9.18359 5.18229 9.30078 5.19531C9.40495 5.19531 9.5026 5.24089 9.59375 5.33203C9.6849 5.42318 9.67839 5.51432 9.57422 5.60547C9.67839 5.70964 9.73047 5.85286 9.73047 6.03516C9.73047 6.23698 9.74349 6.41927 9.76953 6.58203C9.76953 6.6276 9.77604 6.68945 9.78906 6.76758C9.80208 6.82617 9.80208 6.88151 9.78906 6.93359C9.78255 6.97917 9.75977 7.04102 9.7207 7.11914C9.68815 7.18424 9.67188 7.23958 9.67188 7.28516C9.6263 7.35026 9.58724 7.41862 9.55469 7.49023C9.52865 7.55534 9.48958 7.6237 9.4375 7.69531C9.40495 7.81901 9.35938 7.91016 9.30078 7.96875C9.23568 8.03385 9.18359 8.10547 9.14453 8.18359C9.04688 8.25521 8.95573 8.33984 8.87109 8.4375C8.81901 8.4375 8.78971 8.46029 8.7832 8.50586C8.77669 8.55143 8.76042 8.58724 8.73438 8.61328C8.47396 8.67839 8.25586 8.82487 8.08008 9.05273C7.9043 9.2806 7.73177 9.51823 7.5625 9.76562C7.35417 9.90234 7.17188 10.0586 7.01562 10.2344C6.98958 10.2669 6.96354 10.3027 6.9375 10.3418C6.91797 10.3743 6.90169 10.4134 6.88867 10.459C6.87565 10.5046 6.85612 10.5469 6.83008 10.5859C6.81055 10.625 6.78776 10.6641 6.76172 10.7031C6.70964 10.7878 6.6543 10.8789 6.5957 10.9766C6.54362 11.0677 6.48828 11.1686 6.42969 11.2793C6.37109 11.3835 6.3125 11.4876 6.25391 11.5918C6.20182 11.6895 6.14974 11.7839 6.09766 11.875C6.0651 11.9596 6.03255 12.0312 6 12.0898C5.96745 12.1419 5.9349 12.2201 5.90234 12.3242L5.74609 12.6172C5.70703 12.6823 5.67448 12.7669 5.64844 12.8711C5.86979 12.8711 6.09115 12.8581 6.3125 12.832C6.53385 12.806 6.75521 12.7799 6.97656 12.7539C7.30859 12.7799 7.62435 12.7441 7.92383 12.6465C8.22982 12.5423 8.53255 12.487 8.83203 12.4805C8.88411 12.4479 8.92969 12.4382 8.96875 12.4512C8.99479 12.4577 9.04036 12.4544 9.10547 12.4414C9.39193 12.4284 9.68164 12.4186 9.97461 12.4121C10.2676 12.4056 10.5703 12.4154 10.8828 12.4414C10.9349 12.4154 10.9772 12.3763 11.0098 12.3242C11.0423 12.2721 11.0716 12.2201 11.0977 12.168C11.1302 12.0898 11.166 12.0312 11.2051 11.9922C11.2311 11.9661 11.2507 11.9401 11.2637 11.9141C11.2832 11.888 11.2995 11.862 11.3125 11.8359C11.3516 11.7318 11.3906 11.6602 11.4297 11.6211C11.4688 11.582 11.5013 11.5299 11.5273 11.4648C11.612 11.2956 11.6608 11.2012 11.6738 11.1816C11.6868 11.1686 11.6966 11.1523 11.7031 11.1328C11.7161 11.1068 11.7292 11.0807 11.7422 11.0547L12.3086 10.0977C12.3346 10.0651 12.3574 10.0228 12.377 9.9707C12.403 9.9056 12.4258 9.85677 12.4453 9.82422C12.4648 9.79167 12.4811 9.73307 12.4941 9.64844C12.5072 9.57682 12.543 9.51823 12.6016 9.47266C12.6276 9.40755 12.6569 9.34245 12.6895 9.27734C12.722 9.20573 12.7546 9.13411 12.7871 9.0625L12.9922 8.63281C13.0247 8.56771 13.0573 8.50586 13.0898 8.44727C13.1224 8.38216 13.1549 8.31706 13.1875 8.25195L13.3828 7.87109C13.3958 7.83854 13.4089 7.80599 13.4219 7.77344C13.4349 7.74089 13.4479 7.71159 13.4609 7.68555C13.474 7.65299 13.487 7.6237 13.5 7.59766C13.513 7.5651 13.526 7.53255 13.5391 7.5C13.6367 7.36328 13.7214 7.22005 13.793 7.07031C13.8451 6.99219 13.8971 6.91406 13.9492 6.83594C14.0013 6.75781 14.0534 6.67318 14.1055 6.58203C14.138 6.4974 14.1706 6.41927 14.2031 6.34766C14.2422 6.26953 14.2812 6.19792 14.3203 6.13281L14.3984 5.98633C14.431 5.92773 14.4505 5.89193 14.457 5.87891C14.4831 5.84635 14.4896 5.80404 14.4766 5.75195C14.4701 5.70638 14.4701 5.66406 14.4766 5.625L14.5742 5.49805C14.6003 5.46549 14.6328 5.42318 14.6719 5.37109C14.7109 5.33203 14.7435 5.29622 14.7695 5.26367C14.8086 5.2181 14.8607 5.21484 14.9258 5.25391C14.9909 5.1888 15.082 5.13021 15.1992 5.07812C15.2513 5.08464 15.2969 5.10742 15.3359 5.14648C15.3685 5.17253 15.4076 5.20182 15.4531 5.23438C15.4792 5.29948 15.4987 5.37109 15.5117 5.44922C15.5247 5.52734 15.4987 5.58594 15.4336 5.625ZM9.63281 13.8086C9.58073 13.7956 9.53841 13.7923 9.50586 13.7988C9.47331 13.8053 9.43099 13.8021 9.37891 13.7891C9.28776 13.7891 9.19661 13.7695 9.10547 13.7305C8.8125 13.7174 8.54232 13.7305 8.29492 13.7695C8.01497 13.8086 7.77734 13.8151 7.58203 13.7891C7.40625 13.8151 7.23047 13.8411 7.05469 13.8672C6.87891 13.8867 6.69987 13.903 6.51758 13.916C6.16602 13.9421 5.81771 13.9909 5.47266 14.0625C5.3099 14.0951 5.16667 14.1341 5.04297 14.1797C5.01693 14.2253 4.9974 14.2741 4.98438 14.3262C4.97786 14.3652 4.95833 14.4206 4.92578 14.4922C5.01693 14.5964 5.11458 14.6973 5.21875 14.7949C5.32292 14.8861 5.43359 14.974 5.55078 15.0586C5.72005 15.2669 5.89258 15.4622 6.06836 15.6445C6.24414 15.8268 6.42318 16.0091 6.60547 16.1914C6.70964 16.2565 6.78125 16.3542 6.82031 16.4844C6.89193 16.5495 6.95378 16.6276 7.00586 16.7188C7.0319 16.7643 7.05794 16.8099 7.08398 16.8555C7.11003 16.901 7.13932 16.9466 7.17188 16.9922C7.30208 17.0052 7.38672 17.0573 7.42578 17.1484C7.47135 17.2526 7.52344 17.3372 7.58203 17.4023C7.63411 17.487 7.68945 17.5716 7.74805 17.6562C7.81315 17.7409 7.87826 17.8255 7.94336 17.9102C8.08008 18.0729 8.1875 18.2487 8.26562 18.4375C8.3112 18.4701 8.33724 18.4993 8.34375 18.5254C8.35026 18.5514 8.3763 18.5807 8.42188 18.6133L8.76367 17.4805C8.81576 17.3177 8.87109 17.1582 8.92969 17.002C8.98828 16.8392 9.05339 16.6797 9.125 16.5234C9.13802 16.4323 9.17383 16.3411 9.23242 16.25C9.29102 16.1654 9.3138 16.0677 9.30078 15.957C9.3724 15.7878 9.44401 15.6217 9.51562 15.459C9.59375 15.2897 9.67188 15.1237 9.75 14.9609C9.82812 14.7982 9.90299 14.6322 9.97461 14.4629C10.0527 14.2936 10.1276 14.1211 10.1992 13.9453C10.1016 13.9388 10.0072 13.9193 9.91602 13.8867C9.87044 13.8737 9.82487 13.8607 9.7793 13.8477C9.73372 13.8346 9.6849 13.8216 9.63281 13.8086ZM20.0133 14.5703L19.9937 14.7266C20.0068 14.7721 19.9937 14.8503 19.9547 14.9609C19.8896 15.0391 19.8505 15.1237 19.8375 15.2148C19.8115 15.2669 19.7887 15.3125 19.7691 15.3516C19.7496 15.3906 19.7333 15.4427 19.7203 15.5078C19.6943 15.5859 19.6845 15.6771 19.691 15.7812C19.6975 15.8333 19.6975 15.8854 19.691 15.9375C19.691 15.9831 19.6878 16.0286 19.6812 16.0742C19.6552 16.2174 19.6357 16.3574 19.6227 16.4941C19.6096 16.6309 19.5966 16.7708 19.5836 16.9141C19.5836 17.0573 19.5706 17.2201 19.5445 17.4023C19.5185 17.5846 19.4924 17.7474 19.4664 17.8906C19.525 17.9948 19.5576 18.0924 19.5641 18.1836C19.5706 18.2812 19.6161 18.3659 19.7008 18.4375C19.9612 18.3984 20.1695 18.3366 20.3258 18.252C20.482 18.1673 20.6318 18.0469 20.775 17.8906C20.8792 17.8451 20.9605 17.7995 21.0191 17.7539C21.0712 17.7083 21.1461 17.6562 21.2437 17.5977L21.4 17.4414C21.5562 17.3568 21.6441 17.3047 21.6637 17.2852C21.6767 17.2721 21.693 17.2591 21.7125 17.2461C21.7385 17.2331 21.7646 17.2201 21.7906 17.207C22.012 17.0638 22.1812 16.9141 22.2984 16.7578C22.3961 16.6797 22.4775 16.5983 22.5426 16.5137C22.5947 16.4421 22.6956 16.3737 22.8453 16.3086C22.9299 16.2044 23.0243 16.1165 23.1285 16.0449C23.2327 15.9733 23.3271 15.8854 23.4117 15.7812C23.4833 15.7812 23.5354 15.7943 23.568 15.8203C23.5875 15.8333 23.607 15.8464 23.6266 15.8594C23.6526 15.8724 23.6786 15.8854 23.7047 15.8984C23.7437 16.0026 23.7503 16.11 23.7242 16.2207C23.6982 16.3314 23.6526 16.4323 23.5875 16.5234C23.5224 16.6081 23.4898 16.6602 23.4898 16.6797C23.4898 16.6927 23.4833 16.7057 23.4703 16.7188C23.4312 16.7643 23.3824 16.8132 23.3238 16.8652C23.2652 16.9108 23.2164 16.9596 23.1773 17.0117C23.1122 17.1289 23.0602 17.1875 23.0211 17.1875C22.982 17.1875 22.9495 17.2005 22.9234 17.2266C22.8062 17.2982 22.7249 17.3503 22.6793 17.3828C22.6272 17.4284 22.5523 17.4805 22.4547 17.5391C22.318 17.6107 22.2333 17.6628 22.2008 17.6953C22.1682 17.7279 22.1422 17.7474 22.1227 17.7539C21.9664 17.9297 21.8134 18.0762 21.6637 18.1934C21.527 18.2975 21.3805 18.444 21.2242 18.6328C21.1721 18.6719 21.1201 18.7109 21.068 18.75C21.0159 18.7891 20.9703 18.8411 20.9312 18.9062C20.8141 18.9844 20.7197 19.0625 20.648 19.1406C20.5764 19.2188 20.4951 19.3099 20.4039 19.4141C20.3258 19.4531 20.2411 19.5085 20.15 19.5801C20.0393 19.6647 19.9417 19.7266 19.857 19.7656C19.8245 19.7852 19.7691 19.8145 19.691 19.8535C19.6259 19.8861 19.5641 19.9023 19.5055 19.9023C19.3557 19.9284 19.2125 19.9154 19.0758 19.8633C18.9521 19.8177 18.8284 19.7786 18.7047 19.7461C18.6526 19.668 18.5875 19.6029 18.5094 19.5508C18.3922 19.4076 18.3076 19.2383 18.2555 19.043C18.2034 18.8477 18.1513 18.6393 18.0992 18.418C17.982 18.4961 17.8844 18.5807 17.8062 18.6719C17.7281 18.7695 17.6109 18.8542 17.4547 18.9258C17.3245 19.0495 17.191 19.1732 17.0543 19.2969C16.9176 19.4141 16.7743 19.528 16.6246 19.6387C16.4814 19.7493 16.3349 19.8665 16.1852 19.9902C16.0354 20.1074 15.8857 20.2279 15.7359 20.3516C15.6318 20.4557 15.5602 20.4948 15.5211 20.4688C15.4039 20.612 15.1956 20.6576 14.8961 20.6055C14.7919 20.5534 14.6747 20.5078 14.5445 20.4688C14.4534 20.4427 14.3492 20.4036 14.232 20.3516C14.0107 20.3125 13.8251 20.2148 13.6754 20.0586C13.5257 19.9023 13.3987 19.7201 13.2945 19.5117C13.2555 19.401 13.2262 19.3034 13.2066 19.2188C13.2001 19.1732 13.1904 19.1243 13.1773 19.0723C13.1643 19.0202 13.1513 18.9648 13.1383 18.9062C13.1318 18.7956 13.1122 18.7077 13.0797 18.6426C13.0536 18.571 13.0536 18.5026 13.0797 18.4375C13.0536 18.4049 13.0471 18.3626 13.0602 18.3105C13.0732 18.2454 13.0797 18.1966 13.0797 18.1641C13.0667 17.9818 13.0829 17.7865 13.1285 17.5781C13.1741 17.3698 13.2359 17.181 13.3141 17.0117C13.3531 16.9466 13.4052 16.8815 13.4703 16.8164C13.5029 16.7773 13.5224 16.7383 13.5289 16.6992C13.5354 16.6667 13.5549 16.6341 13.5875 16.6016C13.6201 16.5625 13.6591 16.5234 13.7047 16.4844C13.7698 16.4323 13.8154 16.3932 13.8414 16.3672C13.874 16.3216 13.9065 16.2793 13.9391 16.2402C13.9781 16.1947 14.0204 16.1556 14.066 16.123C14.1116 16.0905 14.1539 16.0547 14.193 16.0156C14.232 15.9766 14.2711 15.9375 14.3102 15.8984C14.3557 15.8529 14.3915 15.8073 14.4176 15.7617C14.4501 15.7096 14.499 15.6706 14.5641 15.6445C14.6161 15.5534 14.6747 15.4785 14.7398 15.4199C14.8049 15.3613 14.8766 15.2995 14.9547 15.2344C15.176 14.9674 15.4495 14.7396 15.775 14.5508C16.107 14.362 16.4 14.1536 16.6539 13.9258C16.7451 13.8867 16.8232 13.8411 16.8883 13.7891C16.9534 13.737 17.0185 13.6849 17.0836 13.6328C17.2464 13.4896 17.4221 13.444 17.6109 13.4961L18.1187 13.6328C18.249 13.75 18.3759 13.8672 18.4996 13.9844C18.6233 14.1016 18.7307 14.2318 18.8219 14.375C18.8674 14.3685 18.9163 14.3652 18.9684 14.3652C19.0204 14.3587 19.0758 14.3587 19.1344 14.3652C19.2516 14.3783 19.3753 14.3685 19.5055 14.3359C19.5445 14.3359 19.5836 14.3262 19.6227 14.3066C19.6617 14.2871 19.6943 14.2773 19.7203 14.2773C19.9156 14.3424 20.0133 14.4401 20.0133 14.5703ZM17.4352 14.8633C17.0836 15.0326 16.7646 15.2311 16.4781 15.459C16.1917 15.6868 15.9182 15.931 15.6578 16.1914C15.6253 16.224 15.5895 16.2565 15.5504 16.2891C15.5178 16.3151 15.4853 16.3444 15.4527 16.377C15.4202 16.403 15.3876 16.4323 15.3551 16.4648C15.3225 16.4974 15.2932 16.5299 15.2672 16.5625C15.2151 16.6276 15.1663 16.7057 15.1207 16.7969C15.0751 16.888 15.0328 16.9727 14.9937 17.0508C14.9807 17.0768 14.9677 17.1029 14.9547 17.1289C14.9417 17.1484 14.9286 17.1647 14.9156 17.1777C14.9026 17.1908 14.8896 17.207 14.8766 17.2266C14.8635 17.2461 14.8505 17.2656 14.8375 17.2852C14.8115 17.3503 14.8017 17.4154 14.8082 17.4805C14.8147 17.526 14.818 17.5977 14.818 17.6953V17.8906C14.818 17.9297 14.8245 17.9948 14.8375 18.0859C14.8766 18.2292 14.8961 18.3724 14.8961 18.5156C14.8961 18.6198 14.9059 18.7467 14.9254 18.8965C14.9449 19.0462 14.9937 19.1471 15.0719 19.1992C15.1565 19.2513 15.2379 19.2643 15.316 19.2383C15.4072 19.2057 15.482 19.1862 15.5406 19.1797C15.9964 18.8281 16.426 18.4603 16.8297 18.0762C17.2333 17.6921 17.5914 17.2591 17.9039 16.7773C17.8779 16.4583 17.8746 16.1296 17.8941 15.791C17.9137 15.472 17.8844 15.1758 17.8062 14.9023C17.7542 14.8698 17.6923 14.86 17.6207 14.873C17.5686 14.8796 17.5068 14.8763 17.4352 14.8633ZM28.2258 18.457C28.2779 18.3854 28.3169 18.3366 28.343 18.3105C28.3755 18.278 28.4146 18.2487 28.4602 18.2227C28.6229 17.8776 28.8345 17.6042 29.0949 17.4023C29.3618 17.2005 29.6451 16.9727 29.9445 16.7188C30.0096 16.7188 30.065 16.696 30.1105 16.6504C30.1561 16.6048 30.2115 16.569 30.2766 16.543C30.3547 16.4714 30.4296 16.4128 30.5012 16.3672C30.5598 16.3281 30.6086 16.276 30.6477 16.2109C30.7974 16.1393 30.9374 16.0417 31.0676 15.918C31.2043 15.7943 31.3378 15.6836 31.468 15.5859C31.5721 15.5599 31.6828 15.5729 31.8 15.625C31.8521 15.7292 31.8716 15.8398 31.8586 15.957C31.8456 16.0742 31.7805 16.1393 31.6633 16.1523C31.6242 16.1914 31.5819 16.2305 31.5363 16.2695C31.4908 16.3086 31.4354 16.3346 31.3703 16.3477C31.2401 16.3737 31.1555 16.4258 31.1164 16.5039C31.1099 16.6276 31.0936 16.7025 31.0676 16.7285C31.0415 16.7546 31.0253 16.7773 31.0187 16.7969C30.8755 17.0378 30.716 17.2461 30.5402 17.4219C30.3645 17.5911 30.1984 17.7995 30.0422 18.0469C29.9706 18.0924 29.912 18.1641 29.8664 18.2617C29.632 18.3919 29.4595 18.4928 29.3488 18.5645C29.2382 18.6361 29.1372 18.724 29.0461 18.8281C28.968 18.8737 28.9289 18.9128 28.9289 18.9453C28.9289 18.9714 28.9159 18.9974 28.8898 19.0234C28.7596 19.1341 28.6848 19.2155 28.6652 19.2676C28.6457 19.3197 28.6164 19.362 28.5773 19.3945C28.5122 19.4401 28.4536 19.4857 28.4016 19.5312C28.356 19.5703 28.3169 19.6061 28.2844 19.6387C28.2062 19.7168 28.1216 19.7721 28.0305 19.8047C27.9198 19.8958 27.757 20.0033 27.5422 20.127C27.3273 20.2572 27.106 20.3548 26.8781 20.4199C26.6503 20.4915 26.4615 20.4948 26.3117 20.4297L26.175 20.3223C26.149 20.3027 26.1034 20.2734 26.0383 20.2344C25.9536 20.1302 25.8592 20.0423 25.7551 19.9707C25.6639 19.9056 25.576 19.8112 25.4914 19.6875C25.3937 19.5508 25.3319 19.4108 25.3059 19.2676C25.2798 19.1178 25.231 18.9714 25.1594 18.8281C25.1268 18.4896 25.1529 18.2096 25.2375 17.9883C25.3091 17.7669 25.3872 17.5618 25.4719 17.373C25.5565 17.1777 25.6509 16.9987 25.7551 16.8359C25.9569 16.5234 26.0969 16.1523 26.175 15.7227C26.0318 15.5794 25.9504 15.446 25.9309 15.3223C25.9243 15.2572 25.9113 15.1823 25.8918 15.0977C25.8723 15.013 25.8495 14.9154 25.8234 14.8047C25.4849 15.026 25.1724 15.306 24.8859 15.6445C24.5995 15.9831 24.3456 16.3281 24.1242 16.6797L23.8898 17.1094C23.8247 17.2331 23.7466 17.3503 23.6555 17.4609C23.5904 17.526 23.5578 17.5684 23.5578 17.5879C23.5578 17.6074 23.5448 17.6302 23.5187 17.6562C23.4667 17.7214 23.4243 17.7767 23.3918 17.8223C23.3592 17.8678 23.3365 17.9036 23.3234 17.9297C23.3104 17.9557 23.2974 17.9818 23.2844 18.0078C23.2714 18.0273 23.2583 18.0469 23.2453 18.0664C23.2062 18.1185 23.1737 18.1576 23.1477 18.1836C23.1216 18.2096 23.0891 18.2487 23.05 18.3008C22.8677 18.5612 22.7017 18.8053 22.552 19.0332L22.093 19.7266C22.0214 19.8372 21.9628 19.9479 21.9172 20.0586C21.8716 20.1758 21.8065 20.2799 21.7219 20.3711C21.5917 20.3841 21.5168 20.3646 21.4973 20.3125C21.4777 20.2604 21.481 20.2148 21.507 20.1758C21.3508 20.0716 21.2629 19.8698 21.2434 19.5703C21.2238 19.2708 21.2531 19.0299 21.3312 18.8477C21.2922 18.7305 21.2792 18.6654 21.2922 18.6523C21.3052 18.6393 21.3117 18.6198 21.3117 18.5938C21.481 18.3594 21.6535 18.125 21.8293 17.8906C22.0051 17.6562 22.1906 17.4349 22.3859 17.2266C22.4185 17.181 22.451 17.1354 22.4836 17.0898C22.5161 17.0443 22.5454 16.9987 22.5715 16.9531C22.6366 16.8555 22.7049 16.7708 22.7766 16.6992C22.8872 16.5104 23.0207 16.3151 23.177 16.1133C23.3332 15.918 23.4602 15.7161 23.5578 15.5078C23.6294 15.4362 23.6783 15.3646 23.7043 15.293C23.7368 15.2148 23.7922 15.1497 23.8703 15.0977C23.9159 15.0195 23.9549 14.9447 23.9875 14.873C24.0266 14.7949 24.0591 14.7201 24.0852 14.6484C24.1242 14.5247 24.1958 14.401 24.3 14.2773C24.326 14.1862 24.3586 14.1146 24.3977 14.0625C24.4367 14.0104 24.4888 13.9518 24.5539 13.8867C24.5604 13.8281 24.5962 13.7728 24.6613 13.7207C24.7264 13.6686 24.7753 13.6133 24.8078 13.5547C24.8404 13.4635 24.8729 13.4049 24.9055 13.3789C24.9445 13.3464 24.9641 13.3008 24.9641 13.2422C25.0292 13.1771 25.0943 13.1087 25.1594 13.0371C25.2245 12.9655 25.2831 12.8776 25.3352 12.7734C25.5174 12.6693 25.6444 12.6172 25.716 12.6172C25.7876 12.6172 25.843 12.5846 25.882 12.5195C25.9341 12.5195 25.9895 12.5195 26.048 12.5195C26.1132 12.5195 26.1815 12.5163 26.2531 12.5098C26.4029 12.4967 26.481 12.5456 26.4875 12.6562C26.494 12.6823 26.494 12.7148 26.4875 12.7539C26.481 12.7734 26.4745 12.793 26.468 12.8125C26.4615 12.832 26.4549 12.8516 26.4484 12.8711C26.4549 12.9883 26.4549 13.0501 26.4484 13.0566C26.4354 13.0697 26.4289 13.0794 26.4289 13.0859C26.4159 13.138 26.4126 13.1836 26.4191 13.2227C26.4257 13.2552 26.4289 13.3138 26.4289 13.3984C26.4224 13.4505 26.4159 13.4961 26.4094 13.5352C26.4029 13.5742 26.3964 13.61 26.3898 13.6426C26.3768 13.7077 26.4029 13.7826 26.468 13.8672C26.5005 13.9128 26.5396 13.9486 26.5852 13.9746C26.6307 14.0007 26.6763 14.043 26.7219 14.1016C26.7544 14.1341 26.7772 14.1732 26.7902 14.2188C26.8033 14.2643 26.826 14.3034 26.8586 14.3359C26.8846 14.3685 26.9237 14.401 26.9758 14.4336C27.0279 14.4661 27.0669 14.5117 27.093 14.5703C27.1646 14.6224 27.1874 14.6549 27.1613 14.668C27.1418 14.681 27.1711 14.707 27.2492 14.7461C27.399 14.9349 27.5096 15.1367 27.5812 15.3516C27.6659 15.5143 27.7375 15.6445 27.7961 15.7422C27.8612 15.8464 27.8612 15.9505 27.7961 16.0547C27.757 16.0938 27.7115 16.1719 27.6594 16.2891C27.6008 16.3477 27.5487 16.4128 27.5031 16.4844C27.4771 16.5299 27.4576 16.5788 27.4445 16.6309C27.438 16.6764 27.4185 16.7188 27.3859 16.7578C27.2687 16.9466 27.1483 17.1159 27.0246 17.2656C26.9009 17.4154 26.7935 17.5781 26.7023 17.7539C26.7089 18.125 26.7805 18.3984 26.9172 18.5742C27.0734 18.7565 27.1711 18.8477 27.2102 18.8477C27.2948 18.8607 27.3859 18.8346 27.4836 18.7695L27.7375 18.6133C27.7635 18.6003 27.7863 18.5872 27.8059 18.5742C27.8319 18.5612 27.8547 18.5482 27.8742 18.5352C27.9133 18.5091 27.9589 18.4896 28.0109 18.4766C28.1477 18.431 28.2128 18.4147 28.2062 18.4277C28.1997 18.4473 28.2062 18.457 28.2258 18.457ZM34.8758 10.2148L35.0711 10.2734C35.0971 10.306 35.1102 10.3451 35.1102 10.3906C35.1102 10.4232 35.1297 10.4557 35.1688 10.4883C35.1427 10.6055 35.1199 10.7259 35.1004 10.8496C35.0809 10.9733 35.0711 11.0938 35.0711 11.2109C35.0711 11.2565 35.0874 11.3021 35.1199 11.3477C35.1525 11.3932 35.1688 11.4323 35.1688 11.4648C35.1036 11.6146 35.0548 11.7057 35.0223 11.7383C34.9897 11.7708 34.9734 11.8034 34.9734 11.8359C34.9083 11.862 34.8595 11.901 34.827 11.9531C34.7944 12.0052 34.7391 12.0312 34.6609 12.0312C34.6349 12.0703 34.6056 12.0996 34.573 12.1191C34.534 12.1452 34.5112 12.181 34.5047 12.2266C34.2898 12.3177 34.0555 12.3112 33.8016 12.207C33.7299 12.0833 33.6388 11.9987 33.5281 11.9531C33.3589 11.7057 33.3523 11.4128 33.5086 11.0742C33.5346 11.0091 33.5639 10.9408 33.5965 10.8691C33.629 10.7975 33.6583 10.7487 33.6844 10.7227C33.8211 10.625 33.9253 10.5599 33.9969 10.5273C34.0229 10.5143 34.049 10.5013 34.075 10.4883C34.1076 10.4688 34.1368 10.4492 34.1629 10.4297C34.2085 10.3971 34.2768 10.3646 34.368 10.332C34.407 10.319 34.4428 10.3125 34.4754 10.3125C34.5275 10.3125 34.5763 10.2995 34.6219 10.2734C34.6479 10.2669 34.6707 10.2604 34.6902 10.2539C34.7163 10.2474 34.7391 10.2409 34.7586 10.2344C34.8107 10.2214 34.8497 10.2148 34.8758 10.2148ZM31.9461 18.8672L32.0438 18.9062C32.1609 18.8542 32.3042 18.8346 32.4734 18.8477C32.6492 18.8607 32.7859 18.8346 32.8836 18.7695C32.9487 18.7174 32.9943 18.6784 33.0203 18.6523C33.0594 18.6133 33.1049 18.6003 33.157 18.6133C33.3654 18.5352 33.5411 18.457 33.6844 18.3789C33.8341 18.3008 33.9904 18.2422 34.1531 18.2031C34.2573 18.1641 34.3484 18.1055 34.4266 18.0273C34.6935 17.9427 34.9181 17.8223 35.1004 17.666C35.2892 17.5098 35.4943 17.3438 35.7156 17.168C35.8979 17.0638 36.0509 16.9727 36.1746 16.8945C36.2983 16.8164 36.4318 16.7188 36.575 16.6016C36.6076 16.5299 36.6434 16.4811 36.6824 16.4551C36.715 16.4355 36.7508 16.3932 36.7898 16.3281C37.0242 16.3281 37.1544 16.4193 37.1805 16.6016C37.1154 16.7448 37.0275 16.862 36.9168 16.9531C36.7996 17.0508 36.6987 17.1549 36.6141 17.2656C36.5099 17.3307 36.4253 17.3893 36.3602 17.4414C36.2951 17.4935 36.2299 17.5716 36.1648 17.6758C36.1583 17.6758 36.1193 17.7051 36.0477 17.7637C35.9826 17.8223 35.9435 17.8516 35.9305 17.8516C35.8263 17.9753 35.7482 18.0501 35.6961 18.0762C35.644 18.1022 35.5529 18.1706 35.4227 18.2812C35.338 18.4245 35.2208 18.5417 35.0711 18.6328C34.7911 18.8997 34.4949 19.1243 34.1824 19.3066C34.0197 19.3978 33.8667 19.4922 33.7234 19.5898C33.5802 19.681 33.4435 19.7721 33.3133 19.8633C33.2482 19.9023 33.2026 19.9382 33.1766 19.9707C33.1505 20.0033 33.1049 20.0456 33.0398 20.0977C32.9747 20.1497 32.8738 20.2018 32.7371 20.2539C32.6004 20.306 32.4799 20.3516 32.3758 20.3906C32.2911 20.4427 32.2195 20.4818 32.1609 20.5078C31.868 20.5208 31.6466 20.4753 31.4969 20.3711C31.3276 20.2799 31.1974 20.2083 31.1063 20.1562C31.0151 20.1042 30.937 20.0195 30.8719 19.9023C30.7221 19.8307 30.6342 19.7103 30.6082 19.541C30.5952 19.4499 30.5789 19.362 30.5594 19.2773C30.5398 19.1927 30.5203 19.1081 30.5008 19.0234C30.4878 18.9583 30.4747 18.8835 30.4617 18.7988C30.4487 18.7142 30.4487 18.6263 30.4617 18.5352C30.4943 18.3854 30.5138 18.2324 30.5203 18.0762C30.5268 17.9329 30.5594 17.793 30.618 17.6562C30.6766 17.526 30.7124 17.3828 30.7254 17.2266C30.7384 17.0703 30.7742 16.9271 30.8328 16.7969C30.9174 16.6667 30.9533 16.5951 30.9402 16.582C30.9337 16.5755 30.937 16.556 30.95 16.5234L31.0379 16.4062C31.0574 16.3802 31.0867 16.3346 31.1258 16.2695L31.243 15.9766C31.3016 15.8659 31.3602 15.7747 31.4188 15.7031C31.4773 15.625 31.5294 15.5143 31.575 15.3711C31.6076 15.2799 31.6434 15.2083 31.6824 15.1562C31.7085 15.1237 31.7313 15.0911 31.7508 15.0586C31.7768 15.0195 31.8029 14.9805 31.8289 14.9414C31.8615 14.8763 31.894 14.7949 31.9266 14.6973C31.9396 14.6517 31.9526 14.6094 31.9656 14.5703C31.9852 14.5247 32.0047 14.4792 32.0242 14.4336C32.0633 14.3294 32.1121 14.2253 32.1707 14.1211C32.2293 14.0169 32.2911 13.9128 32.3563 13.8086C32.4083 13.7044 32.4539 13.6263 32.493 13.5742C32.532 13.5221 32.6102 13.4896 32.7273 13.4766C32.7859 13.4635 32.8445 13.4668 32.9031 13.4863C32.9747 13.5059 33.0398 13.5026 33.0984 13.4766C33.2677 13.3984 33.3849 13.3594 33.45 13.3594C33.5151 13.3594 33.5607 13.3398 33.5867 13.3008C33.7234 13.3073 33.8276 13.3529 33.8992 13.4375C33.9708 13.5156 34.049 13.5938 34.1336 13.6719C34.0555 14.0495 33.9676 14.3392 33.8699 14.541C33.7723 14.7428 33.6648 14.9544 33.5477 15.1758C33.4826 15.2799 33.4174 15.3971 33.3523 15.5273C33.2872 15.6576 33.2286 15.7747 33.1766 15.8789C33.1115 16.0221 33.0431 16.1491 32.9715 16.2598C32.8868 16.39 32.825 16.5169 32.7859 16.6406L32.698 16.8262C32.659 16.9043 32.6297 16.9661 32.6102 17.0117C32.5971 17.0573 32.5809 17.1029 32.5613 17.1484C32.5483 17.1875 32.5288 17.2233 32.5027 17.2559C32.4767 17.2884 32.4539 17.3242 32.4344 17.3633C32.4148 17.3958 32.3953 17.4284 32.3758 17.4609C32.3367 17.5391 32.2977 17.6172 32.2586 17.6953C32.2195 17.7734 32.187 17.8581 32.1609 17.9492C32.0958 18.0924 32.0568 18.1868 32.0438 18.2324C32.0372 18.2454 32.0307 18.2617 32.0242 18.2812C32.0177 18.2943 32.0112 18.3073 32.0047 18.3203C31.9786 18.4635 31.9396 18.5807 31.8875 18.6719C31.8354 18.763 31.8549 18.8281 31.9461 18.8672ZM38.4398 15.2734C38.531 15.2344 38.6286 15.179 38.7328 15.1074C38.837 15.0358 38.9281 14.9674 39.0062 14.9023C39.182 14.7721 39.3253 14.6549 39.4359 14.5508C39.5466 14.4466 39.6898 14.3294 39.8656 14.1992C39.9112 14.1667 39.9535 14.1341 39.9926 14.1016C40.0381 14.069 40.0772 14.0397 40.1098 14.0137C40.1423 13.9811 40.1749 13.9518 40.2074 13.9258C40.2465 13.8997 40.2823 13.8737 40.3148 13.8477C40.3604 13.8216 40.4223 13.7826 40.5004 13.7305C40.5785 13.6784 40.6404 13.6393 40.6859 13.6133C40.7771 13.5742 40.8617 13.5384 40.9398 13.5059C41.018 13.4733 41.0896 13.444 41.1547 13.418C41.1677 13.4115 41.21 13.3887 41.2816 13.3496C41.3337 13.3171 41.3826 13.3008 41.4281 13.3008C41.5388 13.2878 41.6299 13.3105 41.7016 13.3691C41.7732 13.4212 41.8448 13.4635 41.9164 13.4961C42.0206 13.5547 42.1345 13.6133 42.2582 13.6719C42.3689 13.7174 42.4698 13.7891 42.5609 13.8867C42.6391 14.0234 42.7139 14.1341 42.7855 14.2188C42.8767 14.3294 42.9451 14.4596 42.9906 14.6094C43.0036 14.6615 43.0102 14.7135 43.0102 14.7656V14.9609C43.0427 15.1758 43.0915 15.3678 43.1566 15.5371C43.2283 15.7064 43.199 15.8854 43.0687 16.0742C42.6911 16.2956 42.294 16.4844 41.8773 16.6406C41.7732 16.7188 41.6658 16.7871 41.5551 16.8457C41.503 16.8717 41.4477 16.901 41.3891 16.9336C41.337 16.9661 41.2849 16.9987 41.2328 17.0312C41.1286 17.1745 41.0017 17.2917 40.852 17.3828C40.7152 17.4674 40.5883 17.5716 40.4711 17.6953C40.5232 17.8646 40.5883 18.0078 40.6664 18.125C40.7445 18.2422 40.8357 18.3529 40.9398 18.457C41.018 18.5872 41.1286 18.6784 41.2719 18.7305C41.337 18.7565 41.4411 18.7793 41.5844 18.7988C41.7276 18.8184 41.8318 18.8216 41.8969 18.8086C41.9815 18.776 42.0727 18.7467 42.1703 18.7207C42.2615 18.6947 42.3591 18.6589 42.4633 18.6133C42.6391 18.6068 42.7725 18.5449 42.8637 18.4277C42.9678 18.2975 43.0622 18.2031 43.1469 18.1445C43.1794 18.1185 43.212 18.0957 43.2445 18.0762C43.2771 18.0501 43.3096 18.0306 43.3422 18.0176C43.3943 17.9915 43.4594 17.9362 43.5375 17.8516C43.5701 17.7539 43.6286 17.6693 43.7133 17.5977C43.8826 17.4284 44.0388 17.3112 44.182 17.2461C44.2732 17.1159 44.3904 17.0378 44.5336 17.0117C44.6768 16.9857 44.8005 16.9336 44.9047 16.8555L45.1781 16.6602C45.2237 16.6276 45.266 16.5951 45.3051 16.5625C45.3506 16.5299 45.393 16.4974 45.432 16.4648C45.4711 16.4323 45.5102 16.3997 45.5492 16.3672C45.5948 16.3346 45.6404 16.3021 45.6859 16.2695C45.725 16.2435 45.7641 16.2207 45.8031 16.2012C45.8422 16.1751 45.878 16.1556 45.9105 16.1426C45.9822 16.11 46.0375 16.0612 46.0766 15.9961C46.1221 15.9701 46.1677 15.9505 46.2133 15.9375C46.2328 15.931 46.2523 15.9245 46.2719 15.918C46.2914 15.9115 46.3109 15.9049 46.3305 15.8984C46.363 15.944 46.3891 15.9831 46.4086 16.0156C46.4346 16.0482 46.4509 16.071 46.4574 16.084C46.477 16.11 46.4867 16.1458 46.4867 16.1914C46.4802 16.2565 46.4542 16.2988 46.4086 16.3184C46.363 16.3379 46.337 16.3802 46.3305 16.4453C46.1872 16.5365 46.0408 16.6309 45.891 16.7285C45.7413 16.8262 45.6013 16.9336 45.4711 17.0508C45.4646 17.1159 45.4483 17.1647 45.4223 17.1973C45.4158 17.2103 45.406 17.2298 45.393 17.2559C45.3799 17.2754 45.3669 17.2982 45.3539 17.3242C45.1911 17.4349 45.0219 17.5781 44.8461 17.7539C44.6964 17.9036 44.5271 18.0534 44.3383 18.2031C44.2927 18.2292 44.2309 18.2747 44.1527 18.3398C44.0876 18.3984 44.0193 18.444 43.9477 18.4766C43.7523 18.6589 43.557 18.8379 43.3617 19.0137C43.1664 19.1895 42.9581 19.349 42.7367 19.4922C42.6781 19.5247 42.613 19.5671 42.5414 19.6191C42.4893 19.6582 42.4112 19.694 42.307 19.7266C42.2289 19.7982 42.1475 19.8372 42.0629 19.8438C41.9848 19.8503 41.9034 19.8763 41.8187 19.9219C41.6495 19.9935 41.516 20.0618 41.4184 20.127C41.3142 20.1921 41.1807 20.2409 41.018 20.2734C40.9398 20.306 40.865 20.306 40.7934 20.2734C40.7348 20.2474 40.6469 20.2409 40.5297 20.2539C40.432 20.1953 40.3409 20.1628 40.2562 20.1562C40.2432 20.1172 40.1944 20.0358 40.1098 19.9121C40.0251 19.7884 39.9698 19.7135 39.9437 19.6875C39.8982 19.5247 39.8461 19.4043 39.7875 19.3262C39.7615 19.2936 39.7354 19.2578 39.7094 19.2188C39.6833 19.1797 39.6573 19.1406 39.6312 19.1016C39.5661 18.9974 39.5238 18.8835 39.5043 18.7598C39.4848 18.6361 39.4424 18.5221 39.3773 18.418C39.3904 18.3464 39.3806 18.2975 39.348 18.2715C39.3155 18.2389 39.3057 18.1966 39.3187 18.1445C39.156 18.0208 39.0616 17.9395 39.0355 17.9004L38.9477 17.7539V17.5C38.9477 17.474 38.9607 17.4479 38.9867 17.4219C39.0648 17.3438 39.1527 17.2754 39.2504 17.2168C39.3415 17.1647 39.4229 17.0964 39.4945 17.0117C39.5531 17.0052 39.6085 16.9792 39.6605 16.9336L39.807 16.8164C39.8852 16.7643 39.96 16.7122 40.0316 16.6602C40.1098 16.6081 40.1846 16.5592 40.2562 16.5137C40.406 16.4095 40.5687 16.3086 40.7445 16.2109C40.8747 16.1458 40.9561 16.0352 40.9887 15.8789C41.0212 15.7227 41.0505 15.5729 41.0766 15.4297C40.9984 15.2995 40.9431 15.2344 40.9105 15.2344C40.878 15.2344 40.8487 15.2214 40.8227 15.1953C40.7836 15.1628 40.751 15.127 40.725 15.0879C40.699 15.0423 40.6599 15.0195 40.6078 15.0195C40.5687 15.0326 40.5167 15.0586 40.4516 15.0977C40.3865 15.1367 40.3344 15.1693 40.2953 15.1953C40.1846 15.2604 40.074 15.3223 39.9633 15.3809C39.8526 15.4329 39.7419 15.485 39.6312 15.5371C39.4229 15.6283 39.2081 15.7422 38.9867 15.8789L38.6645 16.0352C38.6124 16.0612 38.5635 16.0872 38.518 16.1133C38.4724 16.1328 38.4333 16.1523 38.4008 16.1719C38.3747 16.1849 38.3454 16.2077 38.3129 16.2402C38.2803 16.2728 38.251 16.3021 38.225 16.3281C38.1143 16.5625 38.0329 16.722 37.9809 16.8066C37.9092 16.9238 37.8539 17.0312 37.8148 17.1289C37.7823 17.2135 37.7432 17.2786 37.6977 17.3242C37.6326 17.4284 37.5805 17.5326 37.5414 17.6367C37.5023 17.7409 37.4437 17.8385 37.3656 17.9297C37.3396 18.0859 37.2908 18.252 37.2191 18.4277C37.1866 18.5124 37.154 18.6003 37.1215 18.6914C37.0889 18.776 37.0596 18.8607 37.0336 18.9453C36.9945 19.1016 36.9457 19.2448 36.8871 19.375C36.8285 19.5052 36.7211 19.5898 36.5648 19.6289C36.5062 19.7201 36.4704 19.7982 36.4574 19.8633C36.4444 19.9284 36.4086 20.0065 36.35 20.0977C36.3174 20.1172 36.2686 20.1335 36.2035 20.1465C36.1579 20.153 36.1026 20.1758 36.0375 20.2148C36.0115 20.2148 35.9268 20.2734 35.7836 20.3906C35.6339 20.5078 35.5427 20.5664 35.5102 20.5664C35.406 20.5924 35.3376 20.5892 35.3051 20.5566C35.2725 20.5176 35.2302 20.5143 35.1781 20.5469C35.1 20.3971 35.0349 20.2995 34.9828 20.2539C34.9958 20.2018 35.0089 20.153 35.0219 20.1074C35.0349 20.0618 35.0447 20.0163 35.0512 19.9707C35.0642 19.8991 35.1 19.8242 35.1586 19.7461C35.1977 19.694 35.2432 19.6322 35.2953 19.5605C35.3474 19.4889 35.393 19.4206 35.432 19.3555C35.4646 19.3034 35.4743 19.2546 35.4613 19.209C35.4548 19.1569 35.4646 19.1081 35.4906 19.0625C35.5297 18.9714 35.5655 18.903 35.598 18.8574C35.6241 18.8249 35.6469 18.7923 35.6664 18.7598C35.6859 18.7207 35.7055 18.6849 35.725 18.6523C35.7706 18.5417 35.8259 18.418 35.891 18.2812C35.9236 18.2227 35.9529 18.1608 35.9789 18.0957C36.0049 18.0306 36.031 17.9622 36.057 17.8906C36.0766 17.819 36.0961 17.7474 36.1156 17.6758C36.1286 17.6042 36.1417 17.5358 36.1547 17.4707C36.1872 17.3145 36.2328 17.1745 36.2914 17.0508C36.3565 16.9076 36.4216 16.7546 36.4867 16.5918C36.5518 16.429 36.5974 16.276 36.6234 16.1328C36.6299 16.0677 36.6495 16.0156 36.682 15.9766C36.7016 15.9505 36.7276 15.8984 36.7602 15.8203C36.7732 15.7878 36.7862 15.7552 36.7992 15.7227C36.8187 15.6836 36.835 15.6413 36.848 15.5957C36.8611 15.5501 36.8773 15.5078 36.8969 15.4688C36.9164 15.4297 36.9359 15.3906 36.9555 15.3516C37.0141 15.2865 37.0499 15.2279 37.0629 15.1758C37.0759 15.1302 37.0922 15.0977 37.1117 15.0781C37.1247 15.0586 37.141 15.0228 37.1605 14.9707C37.1736 14.9316 37.1898 14.9023 37.2094 14.8828C37.2354 14.8177 37.268 14.7526 37.307 14.6875C37.3461 14.6224 37.3786 14.5573 37.4047 14.4922C37.4372 14.4531 37.4698 14.3685 37.5023 14.2383C37.5674 14.1732 37.6 14.1081 37.6 14.043C37.6391 13.8932 37.6684 13.7565 37.6879 13.6328C37.7074 13.5026 37.7562 13.3659 37.8344 13.2227C37.8604 13.1315 37.8832 13.0534 37.9027 12.9883C37.9223 12.9232 37.9353 12.8678 37.9418 12.8223C37.9613 12.7441 38.0167 12.6367 38.1078 12.5C38.1273 12.4479 38.1469 12.3958 38.1664 12.3438C38.1924 12.2852 38.2185 12.2298 38.2445 12.1777C38.2706 12.1257 38.2934 12.0736 38.3129 12.0215C38.3389 11.9629 38.3617 11.9076 38.3812 11.8555L38.4984 11.5527C38.531 11.4746 38.5635 11.3672 38.5961 11.2305C38.6417 11.1393 38.6807 11.0579 38.7133 10.9863C38.7523 10.9082 38.7849 10.8431 38.8109 10.791C38.8695 10.6673 38.9281 10.5534 38.9867 10.4492C39.0388 10.3451 39.0811 10.2539 39.1137 10.1758C39.1527 10.0911 39.1853 10.0228 39.2113 9.9707C39.2374 9.91862 39.2634 9.86654 39.2895 9.81445C39.3155 9.76237 39.3448 9.71354 39.3773 9.66797C39.4229 9.55078 39.4522 9.45638 39.4652 9.38477C39.4848 9.30013 39.5141 9.21875 39.5531 9.14062C39.6638 8.9974 39.7354 8.8737 39.768 8.76953C39.781 8.72396 39.794 8.68164 39.807 8.64258C39.8266 8.59701 39.8461 8.55469 39.8656 8.51562C39.9958 8.21615 40.1456 7.91016 40.3148 7.59766C40.4841 7.28516 40.6859 7.01172 40.9203 6.77734L41.1254 6.58203C41.21 6.4974 41.2719 6.41927 41.3109 6.34766C41.4281 6.23047 41.5323 6.14258 41.6234 6.08398C41.7146 6.02539 41.8122 5.94401 41.9164 5.83984C42.0922 5.87891 42.1931 5.9082 42.2191 5.92773C42.2517 5.94727 42.281 5.95703 42.307 5.95703C42.4568 6.17839 42.5154 6.45833 42.4828 6.79688C42.4828 6.88802 42.4633 6.97917 42.4242 7.07031C42.3852 7.15495 42.3656 7.24609 42.3656 7.34375C42.3526 7.40885 42.3493 7.45443 42.3559 7.48047C42.3624 7.51302 42.3461 7.54557 42.307 7.57812C42.281 7.72135 42.2419 7.85482 42.1898 7.97852C42.1378 8.10221 42.0857 8.22266 42.0336 8.33984C41.8318 8.8151 41.6267 9.21224 41.4184 9.53125C41.2165 9.83724 41.0115 10.2018 40.8031 10.625C40.712 10.7682 40.6306 10.9082 40.559 11.0449C40.4874 11.1816 40.419 11.3411 40.3539 11.5234C40.2758 11.6797 40.1911 11.8359 40.1 11.9922C40.0089 12.1484 39.8982 12.2917 39.768 12.4219C39.6833 12.5846 39.615 12.7246 39.5629 12.8418C39.4978 12.9915 39.4164 13.125 39.3187 13.2422C39.2797 13.3984 39.1951 13.5547 39.0648 13.7109C39.0193 13.8086 38.9704 13.8997 38.9184 13.9844C38.8793 14.043 38.8435 14.1406 38.8109 14.2773L38.6059 14.7949C38.5733 14.8796 38.5408 14.9642 38.5082 15.0488C38.4822 15.127 38.4594 15.2018 38.4398 15.2734ZM51.0859 18.457C51.138 18.3854 51.1771 18.3366 51.2031 18.3105C51.2357 18.278 51.2747 18.2487 51.3203 18.2227C51.4831 17.8776 51.6947 17.6042 51.9551 17.4023C52.222 17.2005 52.5052 16.9727 52.8047 16.7188C52.8698 16.7188 52.9251 16.696 52.9707 16.6504C53.0163 16.6048 53.0716 16.569 53.1367 16.543C53.2148 16.4714 53.2897 16.4128 53.3613 16.3672C53.4199 16.3281 53.4688 16.276 53.5078 16.2109C53.6576 16.1393 53.7975 16.0417 53.9277 15.918C54.0645 15.7943 54.1979 15.6836 54.3281 15.5859C54.4323 15.5599 54.543 15.5729 54.6602 15.625C54.7122 15.7292 54.7318 15.8398 54.7188 15.957C54.7057 16.0742 54.6406 16.1393 54.5234 16.1523C54.4844 16.1914 54.4421 16.2305 54.3965 16.2695C54.3509 16.3086 54.2956 16.3346 54.2305 16.3477C54.1003 16.3737 54.0156 16.4258 53.9766 16.5039C53.9701 16.6276 53.9538 16.7025 53.9277 16.7285C53.9017 16.7546 53.8854 16.7773 53.8789 16.7969C53.7357 17.0378 53.5762 17.2461 53.4004 17.4219C53.2246 17.5911 53.0586 17.7995 52.9023 18.0469C52.8307 18.0924 52.7721 18.1641 52.7266 18.2617C52.4922 18.3919 52.3197 18.4928 52.209 18.5645C52.0983 18.6361 51.9974 18.724 51.9062 18.8281C51.8281 18.8737 51.7891 18.9128 51.7891 18.9453C51.7891 18.9714 51.776 18.9974 51.75 19.0234C51.6198 19.1341 51.5449 19.2155 51.5254 19.2676C51.5059 19.3197 51.4766 19.362 51.4375 19.3945C51.3724 19.4401 51.3138 19.4857 51.2617 19.5312C51.2161 19.5703 51.1771 19.6061 51.1445 19.6387C51.0664 19.7168 50.9818 19.7721 50.8906 19.8047C50.7799 19.8958 50.6172 20.0033 50.4023 20.127C50.1875 20.2572 49.9661 20.3548 49.7383 20.4199C49.5104 20.4915 49.3216 20.4948 49.1719 20.4297L49.0352 20.3223C49.0091 20.3027 48.9635 20.2734 48.8984 20.2344C48.8138 20.1302 48.7194 20.0423 48.6152 19.9707C48.5241 19.9056 48.4362 19.8112 48.3516 19.6875C48.2539 19.5508 48.1921 19.4108 48.166 19.2676C48.14 19.1178 48.0911 18.9714 48.0195 18.8281C47.987 18.4896 48.013 18.2096 48.0977 17.9883C48.1693 17.7669 48.2474 17.5618 48.332 17.373C48.4167 17.1777 48.5111 16.9987 48.6152 16.8359C48.8171 16.5234 48.957 16.1523 49.0352 15.7227C48.8919 15.5794 48.8105 15.446 48.791 15.3223C48.7845 15.2572 48.7715 15.1823 48.752 15.0977C48.7324 15.013 48.7096 14.9154 48.6836 14.8047C48.3451 15.026 48.0326 15.306 47.7461 15.6445C47.4596 15.9831 47.2057 16.3281 46.9844 16.6797L46.75 17.1094C46.6849 17.2331 46.6068 17.3503 46.5156 17.4609C46.4505 17.526 46.418 17.5684 46.418 17.5879C46.418 17.6074 46.4049 17.6302 46.3789 17.6562C46.3268 17.7214 46.2845 17.7767 46.252 17.8223C46.2194 17.8678 46.1966 17.9036 46.1836 17.9297C46.1706 17.9557 46.1576 17.9818 46.1445 18.0078C46.1315 18.0273 46.1185 18.0469 46.1055 18.0664C46.0664 18.1185 46.0339 18.1576 46.0078 18.1836C45.9818 18.2096 45.9492 18.2487 45.9102 18.3008C45.7279 18.5612 45.5618 18.8053 45.4121 19.0332L44.9531 19.7266C44.8815 19.8372 44.8229 19.9479 44.7773 20.0586C44.7318 20.1758 44.6667 20.2799 44.582 20.3711C44.4518 20.3841 44.377 20.3646 44.3574 20.3125C44.3379 20.2604 44.3411 20.2148 44.3672 20.1758C44.2109 20.0716 44.123 19.8698 44.1035 19.5703C44.084 19.2708 44.1133 19.0299 44.1914 18.8477C44.1523 18.7305 44.1393 18.6654 44.1523 18.6523C44.1654 18.6393 44.1719 18.6198 44.1719 18.5938C44.3411 18.3594 44.5137 18.125 44.6895 17.8906C44.8652 17.6562 45.0508 17.4349 45.2461 17.2266C45.2786 17.181 45.3112 17.1354 45.3438 17.0898C45.3763 17.0443 45.4056 16.9987 45.4316 16.9531C45.4967 16.8555 45.5651 16.7708 45.6367 16.6992C45.7474 16.5104 45.8809 16.3151 46.0371 16.1133C46.1934 15.918 46.3203 15.7161 46.418 15.5078C46.4896 15.4362 46.5384 15.3646 46.5645 15.293C46.597 15.2148 46.6523 15.1497 46.7305 15.0977C46.776 15.0195 46.8151 14.9447 46.8477 14.873C46.8867 14.7949 46.9193 14.7201 46.9453 14.6484C46.9844 14.5247 47.056 14.401 47.1602 14.2773C47.1862 14.1862 47.2188 14.1146 47.2578 14.0625C47.2969 14.0104 47.349 13.9518 47.4141 13.8867C47.4206 13.8281 47.4564 13.7728 47.5215 13.7207C47.5866 13.6686 47.6354 13.6133 47.668 13.5547C47.7005 13.4635 47.7331 13.4049 47.7656 13.3789C47.8047 13.3464 47.8242 13.3008 47.8242 13.2422C47.8893 13.1771 47.9544 13.1087 48.0195 13.0371C48.0846 12.9655 48.1432 12.8776 48.1953 12.7734C48.3776 12.6693 48.5046 12.6172 48.5762 12.6172C48.6478 12.6172 48.7031 12.5846 48.7422 12.5195C48.7943 12.5195 48.8496 12.5195 48.9082 12.5195C48.9733 12.5195 49.0417 12.5163 49.1133 12.5098C49.263 12.4967 49.3411 12.5456 49.3477 12.6562C49.3542 12.6823 49.3542 12.7148 49.3477 12.7539C49.3411 12.7734 49.3346 12.793 49.3281 12.8125C49.3216 12.832 49.3151 12.8516 49.3086 12.8711C49.3151 12.9883 49.3151 13.0501 49.3086 13.0566C49.2956 13.0697 49.2891 13.0794 49.2891 13.0859C49.276 13.138 49.2728 13.1836 49.2793 13.2227C49.2858 13.2552 49.2891 13.3138 49.2891 13.3984C49.2826 13.4505 49.276 13.4961 49.2695 13.5352C49.263 13.5742 49.2565 13.61 49.25 13.6426C49.237 13.7077 49.263 13.7826 49.3281 13.8672C49.3607 13.9128 49.3997 13.9486 49.4453 13.9746C49.4909 14.0007 49.5365 14.043 49.582 14.1016C49.6146 14.1341 49.6374 14.1732 49.6504 14.2188C49.6634 14.2643 49.6862 14.3034 49.7188 14.3359C49.7448 14.3685 49.7839 14.401 49.8359 14.4336C49.888 14.4661 49.9271 14.5117 49.9531 14.5703C50.0247 14.6224 50.0475 14.6549 50.0215 14.668C50.002 14.681 50.0312 14.707 50.1094 14.7461C50.2591 14.9349 50.3698 15.1367 50.4414 15.3516C50.526 15.5143 50.5977 15.6445 50.6562 15.7422C50.7214 15.8464 50.7214 15.9505 50.6562 16.0547C50.6172 16.0938 50.5716 16.1719 50.5195 16.2891C50.4609 16.3477 50.4089 16.4128 50.3633 16.4844C50.3372 16.5299 50.3177 16.5788 50.3047 16.6309C50.2982 16.6764 50.2786 16.7188 50.2461 16.7578C50.1289 16.9466 50.0085 17.1159 49.8848 17.2656C49.7611 17.4154 49.6536 17.5781 49.5625 17.7539C49.569 18.125 49.6406 18.3984 49.7773 18.5742C49.9336 18.7565 50.0312 18.8477 50.0703 18.8477C50.1549 18.8607 50.2461 18.8346 50.3438 18.7695L50.5977 18.6133C50.6237 18.6003 50.6465 18.5872 50.666 18.5742C50.6921 18.5612 50.7148 18.5482 50.7344 18.5352C50.7734 18.5091 50.819 18.4896 50.8711 18.4766C51.0078 18.431 51.0729 18.4147 51.0664 18.4277C51.0599 18.4473 51.0664 18.457 51.0859 18.457ZM57.7359 10.2148L57.9313 10.2734C57.9573 10.306 57.9703 10.3451 57.9703 10.3906C57.9703 10.4232 57.9898 10.4557 58.0289 10.4883C58.0029 10.6055 57.9801 10.7259 57.9605 10.8496C57.941 10.9733 57.9313 11.0938 57.9313 11.2109C57.9313 11.2565 57.9475 11.3021 57.9801 11.3477C58.0126 11.3932 58.0289 11.4323 58.0289 11.4648C57.9638 11.6146 57.915 11.7057 57.8824 11.7383C57.8499 11.7708 57.8336 11.8034 57.8336 11.8359C57.7685 11.862 57.7197 11.901 57.6871 11.9531C57.6546 12.0052 57.5992 12.0312 57.5211 12.0312C57.4951 12.0703 57.4658 12.0996 57.4332 12.1191C57.3941 12.1452 57.3714 12.181 57.3648 12.2266C57.15 12.3177 56.9156 12.3112 56.6617 12.207C56.5901 12.0833 56.499 11.9987 56.3883 11.9531C56.219 11.7057 56.2125 11.4128 56.3688 11.0742C56.3948 11.0091 56.4241 10.9408 56.4566 10.8691C56.4892 10.7975 56.5185 10.7487 56.5445 10.7227C56.6813 10.625 56.7854 10.5599 56.857 10.5273C56.8831 10.5143 56.9091 10.5013 56.9352 10.4883C56.9677 10.4688 56.997 10.4492 57.023 10.4297C57.0686 10.3971 57.137 10.3646 57.2281 10.332C57.2672 10.319 57.303 10.3125 57.3355 10.3125C57.3876 10.3125 57.4365 10.2995 57.482 10.2734C57.5081 10.2669 57.5309 10.2604 57.5504 10.2539C57.5764 10.2474 57.5992 10.2409 57.6188 10.2344C57.6708 10.2214 57.7099 10.2148 57.7359 10.2148ZM54.8063 18.8672L54.9039 18.9062C55.0211 18.8542 55.1643 18.8346 55.3336 18.8477C55.5094 18.8607 55.6461 18.8346 55.7438 18.7695C55.8089 18.7174 55.8544 18.6784 55.8805 18.6523C55.9195 18.6133 55.9651 18.6003 56.0172 18.6133C56.2255 18.5352 56.4013 18.457 56.5445 18.3789C56.6943 18.3008 56.8505 18.2422 57.0133 18.2031C57.1174 18.1641 57.2086 18.1055 57.2867 18.0273C57.5536 17.9427 57.7783 17.8223 57.9605 17.666C58.1494 17.5098 58.3544 17.3438 58.5758 17.168C58.7581 17.0638 58.9111 16.9727 59.0348 16.8945C59.1585 16.8164 59.2919 16.7188 59.4352 16.6016C59.4677 16.5299 59.5035 16.4811 59.5426 16.4551C59.5751 16.4355 59.6109 16.3932 59.65 16.3281C59.8844 16.3281 60.0146 16.4193 60.0406 16.6016C59.9755 16.7448 59.8876 16.862 59.777 16.9531C59.6598 17.0508 59.5589 17.1549 59.4742 17.2656C59.3701 17.3307 59.2854 17.3893 59.2203 17.4414C59.1552 17.4935 59.0901 17.5716 59.025 17.6758C59.0185 17.6758 58.9794 17.7051 58.9078 17.7637C58.8427 17.8223 58.8036 17.8516 58.7906 17.8516C58.6865 17.9753 58.6083 18.0501 58.5563 18.0762C58.5042 18.1022 58.413 18.1706 58.2828 18.2812C58.1982 18.4245 58.081 18.5417 57.9313 18.6328C57.6513 18.8997 57.3551 19.1243 57.0426 19.3066C56.8798 19.3978 56.7268 19.4922 56.5836 19.5898C56.4404 19.681 56.3036 19.7721 56.1734 19.8633C56.1083 19.9023 56.0628 19.9382 56.0367 19.9707C56.0107 20.0033 55.9651 20.0456 55.9 20.0977C55.8349 20.1497 55.734 20.2018 55.5973 20.2539C55.4605 20.306 55.3401 20.3516 55.2359 20.3906C55.1513 20.4427 55.0797 20.4818 55.0211 20.5078C54.7281 20.5208 54.5068 20.4753 54.357 20.3711C54.1878 20.2799 54.0576 20.2083 53.9664 20.1562C53.8753 20.1042 53.7971 20.0195 53.732 19.9023C53.5823 19.8307 53.4944 19.7103 53.4684 19.541C53.4553 19.4499 53.4391 19.362 53.4195 19.2773C53.4 19.1927 53.3805 19.1081 53.3609 19.0234C53.3479 18.9583 53.3349 18.8835 53.3219 18.7988C53.3089 18.7142 53.3089 18.6263 53.3219 18.5352C53.3544 18.3854 53.374 18.2324 53.3805 18.0762C53.387 17.9329 53.4195 17.793 53.4781 17.6562C53.5367 17.526 53.5725 17.3828 53.5855 17.2266C53.5986 17.0703 53.6344 16.9271 53.693 16.7969C53.7776 16.6667 53.8134 16.5951 53.8004 16.582C53.7939 16.5755 53.7971 16.556 53.8102 16.5234L53.898 16.4062C53.9176 16.3802 53.9469 16.3346 53.9859 16.2695L54.1031 15.9766C54.1617 15.8659 54.2203 15.7747 54.2789 15.7031C54.3375 15.625 54.3896 15.5143 54.4352 15.3711C54.4677 15.2799 54.5035 15.2083 54.5426 15.1562C54.5686 15.1237 54.5914 15.0911 54.6109 15.0586C54.637 15.0195 54.663 14.9805 54.6891 14.9414C54.7216 14.8763 54.7542 14.7949 54.7867 14.6973C54.7997 14.6517 54.8128 14.6094 54.8258 14.5703C54.8453 14.5247 54.8648 14.4792 54.8844 14.4336C54.9234 14.3294 54.9723 14.2253 55.0309 14.1211C55.0895 14.0169 55.1513 13.9128 55.2164 13.8086C55.2685 13.7044 55.3141 13.6263 55.3531 13.5742C55.3922 13.5221 55.4703 13.4896 55.5875 13.4766C55.6461 13.4635 55.7047 13.4668 55.7633 13.4863C55.8349 13.5059 55.9 13.5026 55.9586 13.4766C56.1279 13.3984 56.2451 13.3594 56.3102 13.3594C56.3753 13.3594 56.4208 13.3398 56.4469 13.3008C56.5836 13.3073 56.6878 13.3529 56.7594 13.4375C56.831 13.5156 56.9091 13.5938 56.9938 13.6719C56.9156 14.0495 56.8277 14.3392 56.7301 14.541C56.6324 14.7428 56.525 14.9544 56.4078 15.1758C56.3427 15.2799 56.2776 15.3971 56.2125 15.5273C56.1474 15.6576 56.0888 15.7747 56.0367 15.8789C55.9716 16.0221 55.9033 16.1491 55.8316 16.2598C55.747 16.39 55.6852 16.5169 55.6461 16.6406L55.5582 16.8262C55.5191 16.9043 55.4898 16.9661 55.4703 17.0117C55.4573 17.0573 55.441 17.1029 55.4215 17.1484C55.4085 17.1875 55.3889 17.2233 55.3629 17.2559C55.3369 17.2884 55.3141 17.3242 55.2945 17.3633C55.275 17.3958 55.2555 17.4284 55.2359 17.4609C55.1969 17.5391 55.1578 17.6172 55.1188 17.6953C55.0797 17.7734 55.0471 17.8581 55.0211 17.9492C54.956 18.0924 54.9169 18.1868 54.9039 18.2324C54.8974 18.2454 54.8909 18.2617 54.8844 18.2812C54.8779 18.2943 54.8714 18.3073 54.8648 18.3203C54.8388 18.4635 54.7997 18.5807 54.7477 18.6719C54.6956 18.763 54.7151 18.8281 54.8063 18.8672ZM59.9719 18.5156C60.2648 18.2617 60.5415 17.9785 60.802 17.666C60.9322 17.5163 61.0656 17.3633 61.2023 17.207C61.3391 17.0508 61.4823 16.8945 61.632 16.7383C61.6971 16.6732 61.7622 16.5951 61.8273 16.5039C61.8924 16.4128 61.9576 16.3151 62.0227 16.2109C62.0747 16.1328 62.1398 16.0579 62.218 15.9863C62.3026 15.9082 62.3677 15.8398 62.4133 15.7812C62.4523 15.7161 62.5012 15.6641 62.5598 15.625C62.5923 15.6055 62.6216 15.5859 62.6477 15.5664C62.6802 15.5404 62.7128 15.5143 62.7453 15.4883C62.8104 15.4232 62.869 15.3678 62.9211 15.3223C62.9732 15.2767 63.0318 15.2279 63.0969 15.1758C63.1555 15.1302 63.2108 15.0846 63.2629 15.0391C63.3215 14.987 63.3768 14.9382 63.4289 14.8926C63.5331 14.7949 63.6568 14.7135 63.8 14.6484C63.8781 14.6354 63.9367 14.6061 63.9758 14.5605C64.0018 14.528 64.0474 14.4792 64.1125 14.4141C64.1906 14.4271 64.2492 14.4206 64.2883 14.3945C64.3143 14.3815 64.3404 14.3685 64.3664 14.3555C64.399 14.3424 64.4315 14.3294 64.4641 14.3164C64.6464 14.3555 64.7928 14.4271 64.9035 14.5312C65.0142 14.6354 65.1216 14.7396 65.2258 14.8438C65.3169 14.8828 65.3885 14.9186 65.4406 14.9512C65.4927 14.9837 65.5448 15.0195 65.5969 15.0586C65.649 15.1628 65.6945 15.2604 65.7336 15.3516C65.7727 15.4427 65.7922 15.5469 65.7922 15.6641C65.7922 15.7161 65.7857 15.7943 65.7727 15.8984C65.7661 15.9375 65.7596 15.9766 65.7531 16.0156C65.7466 16.0547 65.7401 16.0938 65.7336 16.1328C65.6815 16.2891 65.662 16.3737 65.675 16.3867C65.688 16.3997 65.6945 16.4193 65.6945 16.4453C65.7076 16.5625 65.6717 16.6699 65.5871 16.7676C65.5025 16.8717 65.4797 16.9857 65.5187 17.1094C65.5318 17.1615 65.5155 17.2591 65.4699 17.4023C65.4243 17.5456 65.4081 17.6432 65.4211 17.6953C65.4471 17.7669 65.4602 17.8678 65.4602 17.998C65.4602 18.1283 65.4927 18.2161 65.5578 18.2617C65.6945 18.3138 65.7857 18.3398 65.8312 18.3398H65.968C66.1242 18.2617 66.3195 18.1283 66.5539 17.9395C66.7883 17.7507 66.9641 17.5911 67.0812 17.4609C67.1464 17.4089 67.2082 17.3568 67.2668 17.3047C67.3254 17.2526 67.3807 17.2038 67.4328 17.1582C67.5565 17.0475 67.6997 16.9531 67.8625 16.875C68.0318 16.7578 68.1359 16.6764 68.175 16.6309L68.4289 16.3477C68.468 16.3086 68.5168 16.2695 68.5754 16.2305C68.634 16.1914 68.6893 16.1458 68.7414 16.0938C68.8456 15.9896 68.9497 15.918 69.0539 15.8789H69.2785C69.3697 15.8789 69.4315 15.9049 69.4641 15.957C69.4901 16.0612 69.4901 16.1523 69.4641 16.2305C69.438 16.3086 69.4055 16.3802 69.3664 16.4453C69.3208 16.5169 69.2622 16.5885 69.1906 16.6602C69.1385 16.7578 69.0799 16.8424 69.0148 16.9141C68.9823 16.9466 68.9465 16.9824 68.9074 17.0215C68.8749 17.054 68.8391 17.0931 68.8 17.1387C68.7219 17.2298 68.6307 17.2982 68.5266 17.3438C68.494 17.3828 68.4615 17.4186 68.4289 17.4512C68.4029 17.4837 68.3736 17.5163 68.341 17.5488L68.1555 17.7344C68.0839 17.806 68.0253 17.8776 67.9797 17.9492C67.9341 18.0208 67.8755 18.0924 67.8039 18.1641C67.7323 18.2227 67.6607 18.2812 67.5891 18.3398C67.524 18.3984 67.4556 18.4538 67.384 18.5059C67.2473 18.61 67.1203 18.737 67.0031 18.8867C66.9445 18.9128 66.8924 18.9421 66.8469 18.9746C66.8208 18.9941 66.7753 19.0234 66.7102 19.0625C66.5474 19.1081 66.3814 19.2025 66.2121 19.3457C66.0493 19.4889 65.8801 19.6224 65.7043 19.7461C65.535 19.8633 65.356 19.9154 65.1672 19.9023C65.024 19.9674 64.9003 19.9707 64.7961 19.9121C64.6919 19.8535 64.5878 19.7917 64.4836 19.7266C64.3404 19.6354 64.2036 19.5312 64.0734 19.4141C63.9432 19.2969 63.8651 19.1341 63.8391 18.9258C63.813 18.5872 63.8521 18.2682 63.9562 17.9688C64.0669 17.6628 64.1451 17.3633 64.1906 17.0703C64.1906 17.0378 64.2102 16.9206 64.2492 16.7188C64.2948 16.5104 64.3013 16.3737 64.2687 16.3086C64.2492 16.2826 64.2329 16.237 64.2199 16.1719C64.2134 16.1068 64.1581 16.0417 64.0539 15.9766C63.9953 15.944 63.9693 15.9375 63.9758 15.957C63.9823 15.9831 63.9302 15.9961 63.8195 15.9961C63.7089 16.0352 63.6177 16.0872 63.5461 16.1523C63.507 16.1849 63.4647 16.2174 63.4191 16.25C63.3801 16.2826 63.3378 16.3151 63.2922 16.3477C63.175 16.4844 63.0285 16.6146 62.8527 16.7383C62.6965 16.849 62.5565 16.9857 62.4328 17.1484C62.3286 17.2656 62.231 17.3828 62.1398 17.5C62.0617 17.6042 61.9576 17.7214 61.8273 17.8516C61.4628 18.2682 61.1047 18.6523 60.7531 19.0039C60.7076 19.056 60.662 19.1081 60.6164 19.1602C60.5773 19.2122 60.5383 19.2643 60.4992 19.3164C60.4602 19.3685 60.4178 19.4206 60.3723 19.4727C60.3332 19.5247 60.2909 19.5768 60.2453 19.6289C60.0891 19.8242 59.9198 20.013 59.7375 20.1953C59.6594 20.3255 59.5487 20.4492 59.4055 20.5664C59.2622 20.6836 59.119 20.7682 58.9758 20.8203C58.9367 20.7943 58.8944 20.7943 58.8488 20.8203C58.8033 20.8464 58.7609 20.8594 58.7219 20.8594C58.6437 20.8268 58.5819 20.8008 58.5363 20.7812C58.4908 20.7682 58.4615 20.7585 58.4484 20.752C58.4224 20.7389 58.4029 20.7096 58.3898 20.6641C58.2596 20.5859 58.2108 20.459 58.2434 20.2832C58.2759 20.1074 58.3052 19.9544 58.3312 19.8242C58.3964 19.5312 58.4745 19.2383 58.5656 18.9453C58.6568 18.6523 58.7577 18.3626 58.8684 18.0762C58.979 17.7897 59.0799 17.5033 59.1711 17.2168C59.2622 16.9303 59.3404 16.6471 59.4055 16.3672C59.4706 16.1458 59.5357 15.9408 59.6008 15.752C59.6659 15.5632 59.744 15.3646 59.8352 15.1562C59.9328 14.9479 59.9947 14.7624 60.0207 14.5996C60.0467 14.4368 60.1086 14.2513 60.2062 14.043C60.2648 13.9388 60.3104 13.8411 60.343 13.75C60.382 13.6393 60.4211 13.5417 60.4602 13.457C60.6099 13.1901 60.7466 12.8678 60.8703 12.4902C61.0005 12.1061 61.1372 11.7643 61.2805 11.4648C61.4367 11.0482 61.5995 10.6445 61.7687 10.2539C61.938 9.86328 62.1268 9.47917 62.3352 9.10156C62.4589 8.60026 62.6607 8.13151 62.9406 7.69531C63.0708 7.52604 63.1587 7.38932 63.2043 7.28516C63.2629 7.15495 63.3182 7.05729 63.3703 6.99219C63.5266 6.80339 63.7023 6.6569 63.8977 6.55273C64.0865 6.44857 64.2557 6.30208 64.4055 6.11328C64.5161 6.0612 64.6171 6.02214 64.7082 5.99609C64.7603 5.98307 64.8091 5.97005 64.8547 5.95703C64.9003 5.9375 64.9458 5.91797 64.9914 5.89844C65.0305 5.9375 65.05 6.01562 65.05 6.13281C65.076 6.13281 65.0826 6.17188 65.0695 6.25C65.0565 6.32812 65.0565 6.39323 65.0695 6.44531C65.0695 6.6276 65.0533 6.75781 65.0207 6.83594L64.9328 7.05078C64.9198 7.15495 64.9133 7.22331 64.9133 7.25586C64.9133 7.30143 64.9068 7.35677 64.8937 7.42188C64.8547 7.54557 64.8384 7.61393 64.8449 7.62695C64.8514 7.63997 64.8547 7.66276 64.8547 7.69531C64.8547 7.72135 64.8482 7.77995 64.8352 7.87109C64.8221 7.96224 64.8156 8.02734 64.8156 8.06641C64.8091 8.19661 64.7733 8.34635 64.7082 8.51562C64.6561 8.65885 64.6073 8.80208 64.5617 8.94531C64.4836 9.03646 64.438 9.10807 64.425 9.16016C64.412 9.21224 64.3859 9.24479 64.3469 9.25781C64.3078 9.36849 64.2687 9.47917 64.2297 9.58984C64.1971 9.69401 64.1646 9.79818 64.132 9.90234C64.0669 10.1042 63.9693 10.2995 63.8391 10.4883C63.7935 10.625 63.7251 10.765 63.634 10.9082C63.5884 10.9733 63.5461 11.0417 63.507 11.1133C63.4745 11.1784 63.4419 11.2435 63.4094 11.3086L63.3215 11.4941C63.2824 11.5723 63.2531 11.6341 63.2336 11.6797C63.1424 11.849 63.048 12.0215 62.9504 12.1973C62.8527 12.373 62.7388 12.5326 62.6086 12.6758C62.3742 13.1706 62.1268 13.6686 61.8664 14.1699C61.606 14.6712 61.3521 15.1562 61.1047 15.625C61.0591 15.6966 61.0201 15.765 60.9875 15.8301C60.9549 15.8887 60.9289 15.944 60.9094 15.9961C60.8768 16.0677 60.854 16.1491 60.841 16.2402C60.828 16.3184 60.7922 16.3867 60.7336 16.4453C60.7141 16.5039 60.6945 16.5625 60.675 16.6211C60.6555 16.6732 60.6392 16.7253 60.6262 16.7773C60.6001 16.8815 60.5513 16.9792 60.4797 17.0703C60.4341 17.3242 60.3527 17.5684 60.2355 17.8027C60.1249 18.0241 60.037 18.2617 59.9719 18.5156ZM70.2352 17.5977C70.3393 17.5326 70.424 17.4479 70.4891 17.3438C70.5216 17.2917 70.5574 17.2396 70.5965 17.1875C70.6355 17.1354 70.6779 17.0833 70.7234 17.0312C70.8927 16.8359 71.075 16.6732 71.2703 16.543C71.3615 16.4062 71.4754 16.3053 71.6121 16.2402C71.7488 16.1686 71.8562 16.0612 71.9344 15.918C71.9539 15.8919 71.9767 15.8529 72.0027 15.8008C72.0288 15.7487 72.0516 15.7096 72.0711 15.6836C72.3185 15.3385 72.5854 15.0521 72.8719 14.8242C72.9109 14.7917 72.95 14.7591 72.9891 14.7266C73.0281 14.694 73.0639 14.6615 73.0965 14.6289C73.1486 14.5768 73.2365 14.5117 73.3602 14.4336C73.4187 14.401 73.4773 14.3652 73.5359 14.3262C73.5945 14.2806 73.6499 14.2318 73.702 14.1797C73.8061 14.0755 73.9266 13.9974 74.0633 13.9453C74.1479 13.9062 74.2325 13.877 74.3172 13.8574C74.3562 13.8444 74.3953 13.8346 74.4344 13.8281C74.4799 13.8151 74.5255 13.8021 74.5711 13.7891C74.6622 13.763 74.7436 13.7402 74.8152 13.7207C74.8868 13.7012 74.9682 13.7044 75.0594 13.7305C75.2677 13.8151 75.424 13.9909 75.5281 14.2578C75.5672 14.3555 75.5444 14.5605 75.4598 14.873C75.3816 15.1855 75.2872 15.5111 75.1766 15.8496C75.0659 16.1816 74.9878 16.4388 74.9422 16.6211C74.9161 16.7188 74.9096 16.7741 74.9227 16.7871C74.9357 16.8001 74.9422 16.8164 74.9422 16.8359C74.9161 16.901 74.8966 16.9596 74.8836 17.0117C74.8706 17.0638 74.8575 17.1224 74.8445 17.1875C74.8185 17.2917 74.799 17.4316 74.7859 17.6074C74.7729 17.7832 74.7794 17.9232 74.8055 18.0273C74.9357 18.0208 75.0105 18.0078 75.0301 17.9883C75.0431 17.9753 75.0594 17.9688 75.0789 17.9688C75.131 17.9557 75.1733 17.9525 75.2059 17.959C75.2384 17.9655 75.2807 17.9622 75.3328 17.9492C75.5997 17.8776 75.8406 17.7344 76.0555 17.5195C76.1727 17.4674 76.2833 17.4154 76.3875 17.3633C76.4982 17.3112 76.6023 17.2591 76.7 17.207C76.8823 17.0768 77.0288 16.9824 77.1395 16.9238C77.2501 16.8652 77.4161 16.7839 77.6375 16.6797C77.7221 16.582 77.8361 16.5007 77.9793 16.4355C78.1095 16.377 78.2365 16.2956 78.3602 16.1914C78.3992 16.1523 78.4318 16.1165 78.4578 16.084C78.4969 16.0319 78.5359 16.0221 78.575 16.0547C78.6401 16.1198 78.6824 16.1882 78.702 16.2598C78.7215 16.3314 78.7247 16.3802 78.7117 16.4062C78.6141 16.5039 78.5587 16.582 78.5457 16.6406C78.5327 16.6992 78.5164 16.7383 78.4969 16.7578C78.4318 16.8229 78.3341 16.8815 78.2039 16.9336C78.0932 16.9792 78.0249 17.0215 77.9988 17.0605C77.9728 17.0996 77.95 17.1289 77.9305 17.1484C77.8914 17.1875 77.8556 17.2168 77.823 17.2363C77.7905 17.2559 77.7547 17.2852 77.7156 17.3242C77.6896 17.3633 77.6538 17.3861 77.6082 17.3926L77.4812 17.4219C77.4031 17.487 77.338 17.5456 77.2859 17.5977C77.2339 17.6497 77.1753 17.7083 77.1102 17.7734C77.0125 17.8711 76.9474 17.946 76.9148 17.998C76.8888 18.0436 76.8172 18.1055 76.7 18.1836L76.3094 18.418C76.1271 18.5091 75.9448 18.6198 75.7625 18.75C75.5802 18.8802 75.3979 19.0104 75.2156 19.1406C75.0984 19.2122 74.965 19.2806 74.8152 19.3457C74.6785 19.4043 74.5516 19.4727 74.4344 19.5508C74.3758 19.5508 74.34 19.5475 74.327 19.541C74.3074 19.528 74.2716 19.5378 74.2195 19.5703C74.1544 19.5378 74.0893 19.5345 74.0242 19.5605C73.9526 19.5931 73.8875 19.5964 73.8289 19.5703C73.7638 19.5182 73.7085 19.4759 73.6629 19.4434C73.6238 19.4108 73.5913 19.388 73.5652 19.375C73.5262 19.349 73.4904 19.3164 73.4578 19.2773C73.4318 19.2122 73.422 19.1406 73.4285 19.0625C73.435 18.9844 73.4187 18.9193 73.3797 18.8672C73.3797 18.5807 73.3895 18.3073 73.409 18.0469C73.4285 17.7865 73.4708 17.513 73.5359 17.2266C73.549 17.1354 73.5815 16.9792 73.6336 16.7578C73.6857 16.5299 73.728 16.3118 73.7605 16.1035C73.7931 15.8952 73.7833 15.7747 73.7312 15.7422C73.588 15.8203 73.4415 15.9375 73.2918 16.0938C73.2202 16.1719 73.1486 16.2435 73.077 16.3086C73.0053 16.3737 72.937 16.4323 72.8719 16.4844L72.5691 16.6992C72.5236 16.7318 72.4747 16.7676 72.4227 16.8066C72.3706 16.8392 72.3185 16.875 72.2664 16.9141C72.1753 16.9792 72.0971 17.0443 72.032 17.1094C71.9669 17.1745 71.8953 17.2526 71.8172 17.3438C71.7716 17.3893 71.726 17.4349 71.6805 17.4805C71.6414 17.5195 71.6023 17.5618 71.5633 17.6074C71.4852 17.6921 71.394 17.7734 71.2898 17.8516C71.2247 17.9167 71.1759 17.959 71.1434 17.9785C71.1108 17.998 71.0685 18.0339 71.0164 18.0859L70.8309 18.2715C70.7723 18.3301 70.6974 18.3789 70.6062 18.418C70.3979 18.6979 70.1635 18.9681 69.9031 19.2285C69.6492 19.4889 69.4474 19.7526 69.2977 20.0195C69.1414 20.1497 68.9754 20.2637 68.7996 20.3613C68.6238 20.459 68.4122 20.4688 68.1648 20.3906C68.0346 20.3125 67.95 20.2474 67.9109 20.1953C67.8719 20.1497 67.8263 20.1107 67.7742 20.0781C67.7872 19.9349 67.8003 19.7982 67.8133 19.668C67.8263 19.5378 67.8654 19.401 67.9305 19.2578L68.0477 19.0625C68.1128 18.9518 68.1551 18.8216 68.1746 18.6719C68.1941 18.5156 68.2365 18.3789 68.3016 18.2617C68.3797 18.1315 68.4285 18.0241 68.448 17.9395C68.4676 17.8613 68.4969 17.7865 68.5359 17.7148C68.5685 17.6367 68.6043 17.5749 68.6434 17.5293C68.6824 17.4837 68.7182 17.4219 68.7508 17.3438C68.7833 17.2721 68.8289 17.1973 68.8875 17.1191C68.9461 17.041 68.9917 16.9661 69.0242 16.8945C69.1023 16.6146 69.2065 16.3281 69.3367 16.0352C69.3628 15.944 69.3888 15.8561 69.4148 15.7715C69.4409 15.6868 69.4734 15.6055 69.5125 15.5273C69.545 15.4557 69.5776 15.3841 69.6102 15.3125C69.6427 15.2409 69.6753 15.1725 69.7078 15.1074C69.7404 15.0358 69.7729 14.9674 69.8055 14.9023C69.838 14.8307 69.8706 14.7591 69.9031 14.6875C69.9422 14.6094 69.978 14.541 70.0105 14.4824C70.0431 14.4238 70.0854 14.362 70.1375 14.2969C70.157 14.2643 70.1766 14.2318 70.1961 14.1992C70.2156 14.1667 70.2319 14.1341 70.2449 14.1016C70.2579 14.069 70.2742 14.0365 70.2937 14.0039C70.3133 13.9714 70.3328 13.9388 70.3523 13.9062C70.3719 13.8737 70.3914 13.8411 70.4109 13.8086C70.4305 13.7695 70.4467 13.7272 70.4598 13.6816C70.4858 13.597 70.5346 13.5156 70.6062 13.4375C70.6518 13.3854 70.6909 13.3366 70.7234 13.291C70.7625 13.2389 70.795 13.1901 70.8211 13.1445C70.8667 13.0599 70.9513 13.0013 71.075 12.9688C71.1857 13.0208 71.2996 13.0013 71.4168 12.9102C71.5405 12.8125 71.6414 12.819 71.7195 12.9297C71.9018 13.0469 72.0255 13.138 72.0906 13.2031C72.1687 13.2747 72.2208 13.3464 72.2469 13.418C72.312 13.5352 72.3185 13.6556 72.2664 13.7793C72.2143 13.903 72.1232 14.0104 71.993 14.1016C71.9474 14.3034 71.8562 14.5117 71.7195 14.7266C71.6544 14.8242 71.5926 14.9219 71.534 15.0195C71.4754 15.1107 71.42 15.2018 71.368 15.293L71.2117 15.6836C71.1336 15.8659 71.0522 16.0482 70.9676 16.2305C70.8829 16.4128 70.7885 16.5885 70.6844 16.7578C70.5997 16.9336 70.5346 17.0475 70.4891 17.0996C70.45 17.1517 70.4142 17.2038 70.3816 17.2559C70.3556 17.3014 70.3068 17.4154 70.2352 17.5977ZM83.7602 14.5703L83.7406 14.7266C83.7536 14.7721 83.7406 14.8503 83.7016 14.9609C83.6365 15.0391 83.5974 15.1237 83.5844 15.2148C83.5583 15.2669 83.5355 15.3125 83.516 15.3516C83.4965 15.3906 83.4802 15.4427 83.4672 15.5078C83.4411 15.5859 83.4314 15.6771 83.4379 15.7812C83.4444 15.8333 83.4444 15.8854 83.4379 15.9375C83.4379 15.9831 83.4346 16.0286 83.4281 16.0742C83.4021 16.2174 83.3826 16.3574 83.3695 16.4941C83.3565 16.6309 83.3435 16.7708 83.3305 16.9141C83.3305 17.0573 83.3174 17.2201 83.2914 17.4023C83.2654 17.5846 83.2393 17.7474 83.2133 17.8906C83.2719 17.9948 83.3044 18.0924 83.3109 18.1836C83.3174 18.2812 83.363 18.3659 83.4477 18.4375C83.7081 18.3984 83.9164 18.3366 84.0727 18.252C84.2289 18.1673 84.3786 18.0469 84.5219 17.8906C84.626 17.8451 84.7074 17.7995 84.766 17.7539C84.8181 17.7083 84.893 17.6562 84.9906 17.5977L85.1469 17.4414C85.3031 17.3568 85.391 17.3047 85.4105 17.2852C85.4236 17.2721 85.4398 17.2591 85.4594 17.2461C85.4854 17.2331 85.5115 17.2201 85.5375 17.207C85.7589 17.0638 85.9281 16.9141 86.0453 16.7578C86.143 16.6797 86.2243 16.5983 86.2895 16.5137C86.3415 16.4421 86.4424 16.3737 86.5922 16.3086C86.6768 16.2044 86.7712 16.1165 86.8754 16.0449C86.9796 15.9733 87.074 15.8854 87.1586 15.7812C87.2302 15.7812 87.2823 15.7943 87.3148 15.8203C87.3344 15.8333 87.3539 15.8464 87.3734 15.8594C87.3995 15.8724 87.4255 15.8854 87.4516 15.8984C87.4906 16.0026 87.4971 16.11 87.4711 16.2207C87.4451 16.3314 87.3995 16.4323 87.3344 16.5234C87.2693 16.6081 87.2367 16.6602 87.2367 16.6797C87.2367 16.6927 87.2302 16.7057 87.2172 16.7188C87.1781 16.7643 87.1293 16.8132 87.0707 16.8652C87.0121 16.9108 86.9633 16.9596 86.9242 17.0117C86.8591 17.1289 86.807 17.1875 86.768 17.1875C86.7289 17.1875 86.6964 17.2005 86.6703 17.2266C86.5531 17.2982 86.4717 17.3503 86.4262 17.3828C86.3741 17.4284 86.2992 17.4805 86.2016 17.5391C86.0648 17.6107 85.9802 17.6628 85.9477 17.6953C85.9151 17.7279 85.8891 17.7474 85.8695 17.7539C85.7133 17.9297 85.5603 18.0762 85.4105 18.1934C85.2738 18.2975 85.1273 18.444 84.9711 18.6328C84.919 18.6719 84.8669 18.7109 84.8148 18.75C84.7628 18.7891 84.7172 18.8411 84.6781 18.9062C84.5609 18.9844 84.4665 19.0625 84.3949 19.1406C84.3233 19.2188 84.2419 19.3099 84.1508 19.4141C84.0727 19.4531 83.988 19.5085 83.8969 19.5801C83.7862 19.6647 83.6885 19.7266 83.6039 19.7656C83.5714 19.7852 83.516 19.8145 83.4379 19.8535C83.3728 19.8861 83.3109 19.9023 83.2523 19.9023C83.1026 19.9284 82.9594 19.9154 82.8227 19.8633C82.699 19.8177 82.5753 19.7786 82.4516 19.7461C82.3995 19.668 82.3344 19.6029 82.2562 19.5508C82.1391 19.4076 82.0544 19.2383 82.0023 19.043C81.9503 18.8477 81.8982 18.6393 81.8461 18.418C81.7289 18.4961 81.6312 18.5807 81.5531 18.6719C81.475 18.7695 81.3578 18.8542 81.2016 18.9258C81.0714 19.0495 80.9379 19.1732 80.8012 19.2969C80.6645 19.4141 80.5212 19.528 80.3715 19.6387C80.2283 19.7493 80.0818 19.8665 79.932 19.9902C79.7823 20.1074 79.6326 20.2279 79.4828 20.3516C79.3786 20.4557 79.307 20.4948 79.268 20.4688C79.1508 20.612 78.9424 20.6576 78.643 20.6055C78.5388 20.5534 78.4216 20.5078 78.2914 20.4688C78.2003 20.4427 78.0961 20.4036 77.9789 20.3516C77.7576 20.3125 77.572 20.2148 77.4223 20.0586C77.2725 19.9023 77.1456 19.7201 77.0414 19.5117C77.0023 19.401 76.973 19.3034 76.9535 19.2188C76.947 19.1732 76.9372 19.1243 76.9242 19.0723C76.9112 19.0202 76.8982 18.9648 76.8852 18.9062C76.8786 18.7956 76.8591 18.7077 76.8266 18.6426C76.8005 18.571 76.8005 18.5026 76.8266 18.4375C76.8005 18.4049 76.794 18.3626 76.807 18.3105C76.8201 18.2454 76.8266 18.1966 76.8266 18.1641C76.8135 17.9818 76.8298 17.7865 76.8754 17.5781C76.921 17.3698 76.9828 17.181 77.0609 17.0117C77.1 16.9466 77.1521 16.8815 77.2172 16.8164C77.2497 16.7773 77.2693 16.7383 77.2758 16.6992C77.2823 16.6667 77.3018 16.6341 77.3344 16.6016C77.3669 16.5625 77.406 16.5234 77.4516 16.4844C77.5167 16.4323 77.5622 16.3932 77.5883 16.3672C77.6208 16.3216 77.6534 16.2793 77.6859 16.2402C77.725 16.1947 77.7673 16.1556 77.8129 16.123C77.8585 16.0905 77.9008 16.0547 77.9398 16.0156C77.9789 15.9766 78.018 15.9375 78.057 15.8984C78.1026 15.8529 78.1384 15.8073 78.1645 15.7617C78.197 15.7096 78.2458 15.6706 78.3109 15.6445C78.363 15.5534 78.4216 15.4785 78.4867 15.4199C78.5518 15.3613 78.6234 15.2995 78.7016 15.2344C78.9229 14.9674 79.1964 14.7396 79.5219 14.5508C79.8539 14.362 80.1469 14.1536 80.4008 13.9258C80.4919 13.8867 80.5701 13.8411 80.6352 13.7891C80.7003 13.737 80.7654 13.6849 80.8305 13.6328C80.9932 13.4896 81.169 13.444 81.3578 13.4961L81.8656 13.6328C81.9958 13.75 82.1228 13.8672 82.2465 13.9844C82.3702 14.1016 82.4776 14.2318 82.5687 14.375C82.6143 14.3685 82.6631 14.3652 82.7152 14.3652C82.7673 14.3587 82.8227 14.3587 82.8812 14.3652C82.9984 14.3783 83.1221 14.3685 83.2523 14.3359C83.2914 14.3359 83.3305 14.3262 83.3695 14.3066C83.4086 14.2871 83.4411 14.2773 83.4672 14.2773C83.6625 14.3424 83.7602 14.4401 83.7602 14.5703ZM81.182 14.8633C80.8305 15.0326 80.5115 15.2311 80.225 15.459C79.9385 15.6868 79.6651 15.931 79.4047 16.1914C79.3721 16.224 79.3363 16.2565 79.2973 16.2891C79.2647 16.3151 79.2322 16.3444 79.1996 16.377C79.1671 16.403 79.1345 16.4323 79.102 16.4648C79.0694 16.4974 79.0401 16.5299 79.0141 16.5625C78.962 16.6276 78.9131 16.7057 78.8676 16.7969C78.822 16.888 78.7797 16.9727 78.7406 17.0508C78.7276 17.0768 78.7146 17.1029 78.7016 17.1289C78.6885 17.1484 78.6755 17.1647 78.6625 17.1777C78.6495 17.1908 78.6365 17.207 78.6234 17.2266C78.6104 17.2461 78.5974 17.2656 78.5844 17.2852C78.5583 17.3503 78.5486 17.4154 78.5551 17.4805C78.5616 17.526 78.5648 17.5977 78.5648 17.6953V17.8906C78.5648 17.9297 78.5714 17.9948 78.5844 18.0859C78.6234 18.2292 78.643 18.3724 78.643 18.5156C78.643 18.6198 78.6527 18.7467 78.6723 18.8965C78.6918 19.0462 78.7406 19.1471 78.8187 19.1992C78.9034 19.2513 78.9848 19.2643 79.0629 19.2383C79.154 19.2057 79.2289 19.1862 79.2875 19.1797C79.7432 18.8281 80.1729 18.4603 80.5766 18.0762C80.9802 17.6921 81.3383 17.2591 81.6508 16.7773C81.6247 16.4583 81.6215 16.1296 81.641 15.791C81.6605 15.472 81.6312 15.1758 81.5531 14.9023C81.501 14.8698 81.4392 14.86 81.3676 14.873C81.3155 14.8796 81.2536 14.8763 81.182 14.8633ZM87.8516 17.5977C87.9557 17.5326 88.0404 17.4479 88.1055 17.3438C88.138 17.2917 88.1738 17.2396 88.2129 17.1875C88.252 17.1354 88.2943 17.0833 88.3398 17.0312C88.5091 16.8359 88.6914 16.6732 88.8867 16.543C88.9779 16.4062 89.0918 16.3053 89.2285 16.2402C89.3652 16.1686 89.4727 16.0612 89.5508 15.918C89.5703 15.8919 89.5931 15.8529 89.6191 15.8008C89.6452 15.7487 89.668 15.7096 89.6875 15.6836C89.9349 15.3385 90.2018 15.0521 90.4883 14.8242C90.5273 14.7917 90.5664 14.7591 90.6055 14.7266C90.6445 14.694 90.6803 14.6615 90.7129 14.6289C90.765 14.5768 90.8529 14.5117 90.9766 14.4336C91.0352 14.401 91.0938 14.3652 91.1523 14.3262C91.2109 14.2806 91.2663 14.2318 91.3184 14.1797C91.4225 14.0755 91.543 13.9974 91.6797 13.9453C91.7643 13.9062 91.849 13.877 91.9336 13.8574C91.9727 13.8444 92.0117 13.8346 92.0508 13.8281C92.0964 13.8151 92.1419 13.8021 92.1875 13.7891C92.2786 13.763 92.36 13.7402 92.4316 13.7207C92.5033 13.7012 92.5846 13.7044 92.6758 13.7305C92.8841 13.8151 93.0404 13.9909 93.1445 14.2578C93.1836 14.3555 93.1608 14.5605 93.0762 14.873C92.998 15.1855 92.9036 15.5111 92.793 15.8496C92.6823 16.1816 92.6042 16.4388 92.5586 16.6211C92.5326 16.7188 92.526 16.7741 92.5391 16.7871C92.5521 16.8001 92.5586 16.8164 92.5586 16.8359C92.5326 16.901 92.513 16.9596 92.5 17.0117C92.487 17.0638 92.474 17.1224 92.4609 17.1875C92.4349 17.2917 92.4154 17.4316 92.4023 17.6074C92.3893 17.7832 92.3958 17.9232 92.4219 18.0273C92.5521 18.0208 92.627 18.0078 92.6465 17.9883C92.6595 17.9753 92.6758 17.9688 92.6953 17.9688C92.7474 17.9557 92.7897 17.9525 92.8223 17.959C92.8548 17.9655 92.8971 17.9622 92.9492 17.9492C93.2161 17.8776 93.457 17.7344 93.6719 17.5195C93.7891 17.4674 93.8997 17.4154 94.0039 17.3633C94.1146 17.3112 94.2188 17.2591 94.3164 17.207C94.4987 17.0768 94.6452 16.9824 94.7559 16.9238C94.8665 16.8652 95.0326 16.7839 95.2539 16.6797C95.3385 16.582 95.4525 16.5007 95.5957 16.4355C95.7259 16.377 95.8529 16.2956 95.9766 16.1914C96.0156 16.1523 96.0482 16.1165 96.0742 16.084C96.1133 16.0319 96.1523 16.0221 96.1914 16.0547C96.2565 16.1198 96.2988 16.1882 96.3184 16.2598C96.3379 16.3314 96.3411 16.3802 96.3281 16.4062C96.2305 16.5039 96.1751 16.582 96.1621 16.6406C96.1491 16.6992 96.1328 16.7383 96.1133 16.7578C96.0482 16.8229 95.9505 16.8815 95.8203 16.9336C95.7096 16.9792 95.6413 17.0215 95.6152 17.0605C95.5892 17.0996 95.5664 17.1289 95.5469 17.1484C95.5078 17.1875 95.472 17.2168 95.4395 17.2363C95.4069 17.2559 95.3711 17.2852 95.332 17.3242C95.306 17.3633 95.2702 17.3861 95.2246 17.3926L95.0977 17.4219C95.0195 17.487 94.9544 17.5456 94.9023 17.5977C94.8503 17.6497 94.7917 17.7083 94.7266 17.7734C94.6289 17.8711 94.5638 17.946 94.5312 17.998C94.5052 18.0436 94.4336 18.1055 94.3164 18.1836L93.9258 18.418C93.7435 18.5091 93.5612 18.6198 93.3789 18.75C93.1966 18.8802 93.0143 19.0104 92.832 19.1406C92.7148 19.2122 92.5814 19.2806 92.4316 19.3457C92.2949 19.4043 92.168 19.4727 92.0508 19.5508C91.9922 19.5508 91.9564 19.5475 91.9434 19.541C91.9238 19.528 91.888 19.5378 91.8359 19.5703C91.7708 19.5378 91.7057 19.5345 91.6406 19.5605C91.569 19.5931 91.5039 19.5964 91.4453 19.5703C91.3802 19.5182 91.3249 19.4759 91.2793 19.4434C91.2402 19.4108 91.2077 19.388 91.1816 19.375C91.1426 19.349 91.1068 19.3164 91.0742 19.2773C91.0482 19.2122 91.0384 19.1406 91.0449 19.0625C91.0514 18.9844 91.0352 18.9193 90.9961 18.8672C90.9961 18.5807 91.0059 18.3073 91.0254 18.0469C91.0449 17.7865 91.0872 17.513 91.1523 17.2266C91.1654 17.1354 91.1979 16.9792 91.25 16.7578C91.3021 16.5299 91.3444 16.3118 91.377 16.1035C91.4095 15.8952 91.3997 15.7747 91.3477 15.7422C91.2044 15.8203 91.0579 15.9375 90.9082 16.0938C90.8366 16.1719 90.765 16.2435 90.6934 16.3086C90.6217 16.3737 90.5534 16.4323 90.4883 16.4844L90.1855 16.6992C90.14 16.7318 90.0911 16.7676 90.0391 16.8066C89.987 16.8392 89.9349 16.875 89.8828 16.9141C89.7917 16.9792 89.7135 17.0443 89.6484 17.1094C89.5833 17.1745 89.5117 17.2526 89.4336 17.3438C89.388 17.3893 89.3424 17.4349 89.2969 17.4805C89.2578 17.5195 89.2188 17.5618 89.1797 17.6074C89.1016 17.6921 89.0104 17.7734 88.9062 17.8516C88.8411 17.9167 88.7923 17.959 88.7598 17.9785C88.7272 17.998 88.6849 18.0339 88.6328 18.0859L88.4473 18.2715C88.3887 18.3301 88.3138 18.3789 88.2227 18.418C88.0143 18.6979 87.7799 18.9681 87.5195 19.2285C87.2656 19.4889 87.0638 19.7526 86.9141 20.0195C86.7578 20.1497 86.5918 20.2637 86.416 20.3613C86.2402 20.459 86.0286 20.4688 85.7812 20.3906C85.651 20.3125 85.5664 20.2474 85.5273 20.1953C85.4883 20.1497 85.4427 20.1107 85.3906 20.0781C85.4036 19.9349 85.4167 19.7982 85.4297 19.668C85.4427 19.5378 85.4818 19.401 85.5469 19.2578L85.6641 19.0625C85.7292 18.9518 85.7715 18.8216 85.791 18.6719C85.8105 18.5156 85.8529 18.3789 85.918 18.2617C85.9961 18.1315 86.0449 18.0241 86.0645 17.9395C86.084 17.8613 86.1133 17.7865 86.1523 17.7148C86.1849 17.6367 86.2207 17.5749 86.2598 17.5293C86.2988 17.4837 86.3346 17.4219 86.3672 17.3438C86.3997 17.2721 86.4453 17.1973 86.5039 17.1191C86.5625 17.041 86.6081 16.9661 86.6406 16.8945C86.7188 16.6146 86.8229 16.3281 86.9531 16.0352C86.9792 15.944 87.0052 15.8561 87.0312 15.7715C87.0573 15.6868 87.0898 15.6055 87.1289 15.5273C87.1615 15.4557 87.194 15.3841 87.2266 15.3125C87.2591 15.2409 87.2917 15.1725 87.3242 15.1074C87.3568 15.0358 87.3893 14.9674 87.4219 14.9023C87.4544 14.8307 87.487 14.7591 87.5195 14.6875C87.5586 14.6094 87.5944 14.541 87.627 14.4824C87.6595 14.4238 87.7018 14.362 87.7539 14.2969C87.7734 14.2643 87.793 14.2318 87.8125 14.1992C87.832 14.1667 87.8483 14.1341 87.8613 14.1016C87.8743 14.069 87.8906 14.0365 87.9102 14.0039C87.9297 13.9714 87.9492 13.9388 87.9688 13.9062C87.9883 13.8737 88.0078 13.8411 88.0273 13.8086C88.0469 13.7695 88.0632 13.7272 88.0762 13.6816C88.1022 13.597 88.151 13.5156 88.2227 13.4375C88.2682 13.3854 88.3073 13.3366 88.3398 13.291C88.3789 13.2389 88.4115 13.1901 88.4375 13.1445C88.4831 13.0599 88.5677 13.0013 88.6914 12.9688C88.8021 13.0208 88.916 13.0013 89.0332 12.9102C89.1569 12.8125 89.2578 12.819 89.3359 12.9297C89.5182 13.0469 89.6419 13.138 89.707 13.2031C89.7852 13.2747 89.8372 13.3464 89.8633 13.418C89.9284 13.5352 89.9349 13.6556 89.8828 13.7793C89.8307 13.903 89.7396 14.0104 89.6094 14.1016C89.5638 14.3034 89.4727 14.5117 89.3359 14.7266C89.2708 14.8242 89.209 14.9219 89.1504 15.0195C89.0918 15.1107 89.0365 15.2018 88.9844 15.293L88.8281 15.6836C88.75 15.8659 88.6686 16.0482 88.584 16.2305C88.4993 16.4128 88.4049 16.5885 88.3008 16.7578C88.2161 16.9336 88.151 17.0475 88.1055 17.0996C88.0664 17.1517 88.0306 17.2038 87.998 17.2559C87.972 17.3014 87.9232 17.4154 87.8516 17.5977Z" fill="black"/>
</svg>
